STARTFONT 2.1
COMMENT
COMMENT Converted from TrueType font "armalite.ttf" by "ttf2bdf 2.8".
COMMENT
FONT -FreeType-Armalite Rifle-Medium-R-Normal--28-200-100-100-P-30-ISO10646-1
SIZE 20 100 100
FONTBOUNDINGBOX 24 25 -2 -5
STARTPROPERTIES 19
FOUNDRY "FreeType"
FAMILY_NAME "Armalite Rifle"
WEIGHT_NAME "Medium"
SLANT "R"
SETWIDTH_NAME "Normal"
ADD_STYLE_NAME ""
PIXEL_SIZE 28
POINT_SIZE 200
RESOLUTION_X 100
RESOLUTION_Y 100
SPACING "P"
AVERAGE_WIDTH 30
CHARSET_REGISTRY "ISO10646"
CHARSET_ENCODING "1"
FONT_ASCENT 25
FONT_DESCENT 5
COPYRIGHT "2006 Vic Fieger"
_TTF_FONTFILE "armalite.ttf"
_TTF_PSNAME "ArmaliteRifle"
ENDPROPERTIES
CHARS 656
STARTCHAR 0020
ENCODING 32
SWIDTH 252 0
DWIDTH 7 0
BBX 1 1 0 0
BITMAP
00
ENDCHAR
STARTCHAR 0021
ENCODING 33
SWIDTH 396 0
DWIDTH 11 0
BBX 6 19 4 0
BITMAP
70
FC
FC
FC
FC
F4
FC
78
78
78
30
30
00
00
78
60
F0
FC
78
ENDCHAR
STARTCHAR 0022
ENCODING 34
SWIDTH 324 0
DWIDTH 9 0
BBX 7 7 1 13
BITMAP
CE
EE
EE
EE
2C
88
CC
ENDCHAR
STARTCHAR 0023
ENCODING 35
SWIDTH 36 0
DWIDTH 1 0
BBX 1 1 0 0
BITMAP
00
ENDCHAR
STARTCHAR 0024
ENCODING 36
SWIDTH 36 0
DWIDTH 1 0
BBX 1 1 0 0
BITMAP
00
ENDCHAR
STARTCHAR 0025
ENCODING 37
SWIDTH 36 0
DWIDTH 1 0
BBX 1 1 0 0
BITMAP
00
ENDCHAR
STARTCHAR 0026
ENCODING 38
SWIDTH 36 0
DWIDTH 1 0
BBX 1 1 0 0
BITMAP
00
ENDCHAR
STARTCHAR 0027
ENCODING 39
SWIDTH 180 0
DWIDTH 5 0
BBX 3 7 1 13
BITMAP
E0
E0
E0
E0
C0
80
C0
ENDCHAR
STARTCHAR 0028
ENCODING 40
SWIDTH 36 0
DWIDTH 1 0
BBX 1 1 0 0
BITMAP
00
ENDCHAR
STARTCHAR 0029
ENCODING 41
SWIDTH 36 0
DWIDTH 1 0
BBX 1 1 0 0
BITMAP
00
ENDCHAR
STARTCHAR 002A
ENCODING 42
SWIDTH 36 0
DWIDTH 1 0
BBX 1 1 0 0
BITMAP
00
ENDCHAR
STARTCHAR 002B
ENCODING 43
SWIDTH 36 0
DWIDTH 1 0
BBX 1 1 0 0
BITMAP
00
ENDCHAR
STARTCHAR 002C
ENCODING 44
SWIDTH 360 0
DWIDTH 10 0
BBX 6 8 4 -3
BITMAP
78
F8
FC
F8
38
30
30
20
ENDCHAR
STARTCHAR 002D
ENCODING 45
SWIDTH 288 0
DWIDTH 8 0
BBX 6 3 1 9
BITMAP
F4
FC
FC
ENDCHAR
STARTCHAR 002E
ENCODING 46
SWIDTH 360 0
DWIDTH 10 0
BBX 6 5 4 0
BITMAP
78
F8
FC
F8
F8
ENDCHAR
STARTCHAR 002F
ENCODING 47
SWIDTH 360 0
DWIDTH 10 0
BBX 8 22 1 -2
BITMAP
07
07
0F
0E
0E
0E
16
1C
1C
1C
38
30
30
70
70
70
F0
E0
E0
E0
C0
40
ENDCHAR
STARTCHAR 0030
ENCODING 48
SWIDTH 576 0
DWIDTH 16 0
BBX 16 19 0 0
BITMAP
0770
1F78
1F7C
3E3C
6C3E
601E
581F
381F
381F
381F
301F
601F
DC3F
7C3E
7C3E
383E
1EFC
0EF8
06E0
ENDCHAR
STARTCHAR 0031
ENCODING 49
SWIDTH 360 0
DWIDTH 10 0
BBX 8 20 1 -1
BITMAP
06
3E
FE
FE
FE
7E
7E
7E
7E
7A
3E
38
3E
3C
7E
72
A4
67
2F
10
ENDCHAR
STARTCHAR 0032
ENCODING 50
SWIDTH 540 0
DWIDTH 15 0
BBX 14 19 1 0
BITMAP
00C0
32F8
70F8
E07C
C87C
98FC
F878
77F0
0FA0
13C0
2000
2000
0008
7C3C
FFFC
FFFC
FFF8
FFF8
C1F0
ENDCHAR
STARTCHAR 0033
ENCODING 51
SWIDTH 540 0
DWIDTH 15 0
BBX 14 19 1 0
BITMAP
19C0
75F0
99F8
F878
B8F8
F878
70FC
00F8
03F8
07F0
01F8
00D8
78F8
C8F8
C8F8
A8D8
71F8
7DE0
1080
ENDCHAR
STARTCHAR 0034
ENCODING 52
SWIDTH 576 0
DWIDTH 16 0
BBX 14 20 1 -1
BITMAP
0060
00D8
01E8
01E0
01F8
05F0
0DF0
0DD0
1DD0
39F0
71F0
E1F8
FE7C
FD3C
7BFC
03F0
01F0
07F8
07F8
0080
ENDCHAR
STARTCHAR 0035
ENCODING 53
SWIDTH 540 0
DWIDTH 15 0
BBX 13 19 1 0
BITMAP
3000
3FB8
3FF8
3F68
7EF8
7CF0
7000
6480
7DE0
7DF0
30E8
00F8
70F8
F8B8
F8F8
F8F8
F1F0
7DE0
1DC0
ENDCHAR
STARTCHAR 0036
ENCODING 54
SWIDTH 576 0
DWIDTH 16 0
BBX 15 19 0 0
BITMAP
0770
0F78
1E18
3C00
7C00
7860
7FF8
7EFC
743C
3438
7C3E
5C3E
982E
7C26
3C1E
301C
1080
1240
0EC0
ENDCHAR
STARTCHAR 0037
ENCODING 55
SWIDTH 504 0
DWIDTH 14 0
BBX 13 19 1 0
BITMAP
DA18
FFF0
FFB0
FFF0
FFE0
FFE0
C380
0040
0180
0080
0000
0000
0000
0F00
0F00
1F00
1F00
1400
0E00
ENDCHAR
STARTCHAR 0038
ENCODING 56
SWIDTH 648 0
DWIDTH 18 0
BBX 16 20 1 -1
BITMAP
0D78
3F38
7E3E
7C1F
7C1F
781F
7802
7C1A
3E3C
1F7C
7E7E
F81A
F818
F81E
F81F
F81F
FC10
7C50
3F70
0040
ENDCHAR
STARTCHAR 0039
ENCODING 57
SWIDTH 540 0
DWIDTH 15 0
BBX 14 20 1 -1
BITMAP
1EE0
7F70
58F0
F878
F87C
F87C
D87C
D07C
F874
F8E8
7BC0
1F00
00D0
00F0
00E0
01C0
0100
0000
0700
0600
ENDCHAR
STARTCHAR 003A
ENCODING 58
SWIDTH 36 0
DWIDTH 1 0
BBX 1 1 0 0
BITMAP
00
ENDCHAR
STARTCHAR 003B
ENCODING 59
SWIDTH 36 0
DWIDTH 1 0
BBX 1 1 0 0
BITMAP
00
ENDCHAR
STARTCHAR 003C
ENCODING 60
SWIDTH 36 0
DWIDTH 1 0
BBX 1 1 0 0
BITMAP
00
ENDCHAR
STARTCHAR 003D
ENCODING 61
SWIDTH 36 0
DWIDTH 1 0
BBX 1 1 0 0
BITMAP
00
ENDCHAR
STARTCHAR 003E
ENCODING 62
SWIDTH 36 0
DWIDTH 1 0
BBX 1 1 0 0
BITMAP
00
ENDCHAR
STARTCHAR 003F
ENCODING 63
SWIDTH 684 0
DWIDTH 19 0
BBX 14 20 4 -1
BITMAP
1DE0
7DF8
F8FC
F87C
F87C
F8FC
70FC
01F8
03E0
0600
0400
0F00
0F00
0200
0000
0F00
0F00
0F00
0F00
0600
ENDCHAR
STARTCHAR 0040
ENCODING 64
SWIDTH 36 0
DWIDTH 1 0
BBX 1 1 0 0
BITMAP
00
ENDCHAR
STARTCHAR 0041
ENCODING 65
SWIDTH 576 0
DWIDTH 16 0
BBX 19 19 -1 0
BITMAP
07F000
07F000
03F800
03F800
01C800
01B800
06DC00
073800
06FC00
0F7E00
0C6E00
0C7E00
1FBF00
13BD00
1EBD80
3C1F80
7C1FE0
FE3FE0
FC3F40
ENDCHAR
STARTCHAR 0042
ENCODING 66
SWIDTH 648 0
DWIDTH 18 0
BBX 16 19 1 0
BITMAP
FEFC
FEFE
7E3E
7E3F
7E1F
7E1F
7E3F
7E3E
7E76
5EF4
3EFE
7E3F
721C
7E1E
7E3B
6E32
1E30
3E28
38D8
ENDCHAR
STARTCHAR 0043
ENCODING 67
SWIDTH 648 0
DWIDTH 18 0
BBX 16 19 1 0
BITMAP
0EBE
1CAF
3F1F
7E0D
7405
FC03
FC02
DC00
FC00
FC00
FC00
FC00
FC03
BC03
7C07
7C0E
3A1E
0BBC
07B8
ENDCHAR
STARTCHAR 0044
ENCODING 68
SWIDTH 684 0
DWIDTH 19 0
BBX 17 19 1 0
BITMAP
FC1000
F85C00
787F00
701F80
7A1F80
7E1F80
7C0F80
780F80
700F80
680F80
BE0F80
7E0980
7E1380
7C1F80
7E1F00
7E3800
FE7C00
FEF800
7CE000
ENDCHAR
STARTCHAR 0045
ENCODING 69
SWIDTH 576 0
DWIDTH 16 0
BBX 14 20 1 0
BITMAP
003C
FEFC
FEFC
7E1C
7A0C
7E0C
FE00
FE00
FE00
7FF0
FDE0
FDF0
FE00
F600
7600
7E0C
7E0C
7C24
FEFC
FEFC
ENDCHAR
STARTCHAR 0046
ENCODING 70
SWIDTH 612 0
DWIDTH 17 0
BBX 15 19 1 0
BITMAP
FEFE
FEFE
FE1E
3E0E
3E06
3E04
3E00
3E00
3FF8
3FF8
3BF8
2300
3B00
7F00
7700
3200
7700
7F80
3F80
ENDCHAR
STARTCHAR 0047
ENCODING 71
SWIDTH 684 0
DWIDTH 19 0
BBX 18 19 1 0
BITMAP
03DF80
0F9FC0
1E0780
3E03C0
7E0180
FC0180
FC0000
FC0000
FC0000
FC3E00
FC3FC0
FC0FC0
FC04C0
FC0400
5C0800
5E0E00
3F1FC0
1FDCC0
03C000
ENDCHAR
STARTCHAR 0048
ENCODING 72
SWIDTH 720 0
DWIDTH 20 0
BBX 19 20 1 -1
BITMAP
BF3FC0
FF3FE0
FF1FE0
7E1F80
7E1F80
7E1F80
7E1F80
7E1F80
7FFF80
6FFF00
1FFE00
1E0A00
7E1F80
7E1F80
7E1F80
1E1FC0
1821C0
FB3FC0
F03F80
000040
ENDCHAR
STARTCHAR 0049
ENCODING 73
SWIDTH 360 0
DWIDTH 10 0
BBX 8 19 1 0
BITMAP
FF
FF
7F
7E
7C
7C
7C
7C
7C
3C
3C
40
30
7C
64
78
F9
FF
FF
ENDCHAR
STARTCHAR 004A
ENCODING 74
SWIDTH 576 0
DWIDTH 16 0
BBX 15 19 1 0
BITMAP
03FC
07FE
07FC
00F8
01F8
00F8
01F8
01C8
01F8
01F8
0138
0178
C178
8168
80E0
E1F8
F3B0
7BE0
3FC0
ENDCHAR
STARTCHAR 004B
ENCODING 75
SWIDTH 720 0
DWIDTH 20 0
BBX 18 20 1 -1
BITMAP
8C3F80
FF7F80
7F1F00
3C1C00
7E3800
7E7000
767000
76E000
7FF000
7FF000
7CF800
7EFC00
76FC00
327E00
3E7E00
3E3F00
4C1F80
DE3FC0
FF3FC0
333E00
ENDCHAR
STARTCHAR 004C
ENCODING 76
SWIDTH 576 0
DWIDTH 16 0
BBX 15 19 1 0
BITMAP
FF00
9F00
3E00
7E00
7E00
7E00
5E00
7E00
7E00
7C00
7C00
5C00
7C06
7E06
7E06
7E0C
0C3E
EF74
FF7C
ENDCHAR
STARTCHAR 004D
ENCODING 77
SWIDTH 756 0
DWIDTH 21 0
BBX 19 19 1 0
BITMAP
7E0FA0
FE0FE0
9E0FC0
3F1FC0
1F1FC0
1FBF80
1FBF80
1FDF00
0FDF80
2FED00
37EFC0
17E7C0
17E180
13C080
13C000
118780
9D8FC0
9C8DC0
BC0DE0
ENDCHAR
STARTCHAR 004E
ENCODING 78
SWIDTH 684 0
DWIDTH 19 0
BBX 17 19 1 0
BITMAP
261F00
EF1F80
3F1F80
378700
5FC700
4FC700
6DE700
67E700
77F700
7BF300
79FB00
7EFC00
7DFC00
7CFE00
3C6E00
7C6700
7E2700
E60F00
FE1C00
ENDCHAR
STARTCHAR 004F
ENCODING 79
SWIDTH 756 0
DWIDTH 21 0
BBX 19 20 1 -1
BITMAP
0F7C00
1F7E00
3E3F00
1C0F80
7C0FC0
FC0FC0
FC0FE0
FC0FE0
BC0FE0
FC0EC0
FC0EE0
FC0FE0
FC0B80
FC0BC0
FC0FC0
FC0E00
7C0E00
7F3F00
177800
081000
ENDCHAR
STARTCHAR 0050
ENCODING 80
SWIDTH 648 0
DWIDTH 18 0
BBX 17 19 1 0
BITMAP
FF7A00
FEFE00
FE2F00
7E0F00
7E1F80
7E1D00
3E1D00
7E1F00
7E3F00
3EFF00
3EFE00
3E7000
3E0000
3C0000
660000
760000
FF0000
FF0000
FF0000
ENDCHAR
STARTCHAR 0051
ENCODING 81
SWIDTH 756 0
DWIDTH 21 0
BBX 19 24 1 -5
BITMAP
07BF00
1F9F80
1C0FC0
5E07C0
7C07C0
7C0760
7C0BE0
FC07E0
FC07E0
DC07E0
FC0760
FC07E0
FC07C0
FC07C0
7C07C0
7E0F00
3F0F00
1FBE00
0FBC00
001000
000FC0
000FC0
0007C0
000380
ENDCHAR
STARTCHAR 0052
ENCODING 82
SWIDTH 684 0
DWIDTH 19 0
BBX 17 19 1 0
BITMAP
7FF800
FEFE00
FEFF00
7E1F00
7E1F80
7E1F80
7E1F80
7E1F00
7E3F00
3EFF00
3EFE00
3CF800
787C00
287E00
3E7E00
7E3F00
7F3F80
FF1F80
471F80
ENDCHAR
STARTCHAR 0053
ENCODING 83
SWIDTH 576 0
DWIDTH 16 0
BBX 15 19 1 0
BITMAP
16A4
3EAC
7878
F818
F00E
F804
FF80
FFE0
FFF0
7EF8
3FFC
1FFC
03FE
003E
C03E
E00C
F83C
FCF8
BCF0
ENDCHAR
STARTCHAR 0054
ENCODING 84
SWIDTH 648 0
DWIDTH 18 0
BBX 16 19 1 0
BITMAP
41E0
FBEF
F3EF
E3EF
C3E7
C3A3
87E2
03E0
03E0
03E0
0320
0360
0360
03E0
02E0
0260
07F0
0FF8
0FF0
ENDCHAR
STARTCHAR 0055
ENCODING 85
SWIDTH 684 0
DWIDTH 19 0
BBX 17 19 1 0
BITMAP
FB1F00
FB3F80
FF1F80
7E0600
7C0600
7E0600
740600
7C0600
7E0600
7C0600
7E0600
4E0600
7E0600
7E0600
7C0E00
7C0600
3FBC00
1FAC00
073000
ENDCHAR
STARTCHAR 0056
ENCODING 86
SWIDTH 576 0
DWIDTH 16 0
BBX 18 19 -1 0
BITMAP
FF9FC0
FF9FC0
7E0700
3F0700
3F0700
3F0E00
1F8E00
1F8E00
1F9C00
1BDC00
17C800
0FD800
0FF800
07E000
05E000
00F000
00F000
01E000
03E000
ENDCHAR
STARTCHAR 0057
ENCODING 87
SWIDTH 720 0
DWIDTH 20 0
BBX 23 19 -1 0
BITMAP
FFBCFE
FFBDFE
3F5C30
3F7E18
3F7E50
3F7E70
3F7E70
1FFD60
1FBF60
1FAF60
1FBFE0
1FDFA0
0FDF80
0FFFC0
0FEFC0
0FCFC0
06C7C0
07C7C0
078780
ENDCHAR
STARTCHAR 0058
ENCODING 88
SWIDTH 576 0
DWIDTH 16 0
BBX 16 19 0 0
BITMAP
FE3F
FF3B
6F10
3F38
1FB0
1FF0
0FC0
0FC0
0EE0
07E0
03F0
03F0
0BF8
0D70
1DE8
1CF4
78FF
DEFB
FE60
ENDCHAR
STARTCHAR 0059
ENCODING 89
SWIDTH 540 0
DWIDTH 15 0
BBX 18 19 -1 0
BITMAP
1C0000
FE00C0
FE0F00
3F0600
1F8E00
0F9C00
0FC800
07E000
07F000
03F000
03F000
03F000
03F000
03B000
03F000
03F000
07FC00
007800
003800
ENDCHAR
STARTCHAR 005A
ENCODING 90
SWIDTH 648 0
DWIDTH 18 0
BBX 16 19 1 0
BITMAP
FF24
FF7F
F87F
F0FE
E1FC
C1FC
C3F8
07F0
07E0
0FE0
07C0
0F80
2783
3704
770E
DE1E
FEFE
FDFC
F9F0
ENDCHAR
STARTCHAR 005B
ENCODING 91
SWIDTH 36 0
DWIDTH 1 0
BBX 1 1 0 0
BITMAP
00
ENDCHAR
STARTCHAR 005C
ENCODING 92
SWIDTH 36 0
DWIDTH 1 0
BBX 1 1 0 0
BITMAP
00
ENDCHAR
STARTCHAR 005D
ENCODING 93
SWIDTH 36 0
DWIDTH 1 0
BBX 1 1 0 0
BITMAP
00
ENDCHAR
STARTCHAR 005E
ENCODING 94
SWIDTH 36 0
DWIDTH 1 0
BBX 1 1 0 0
BITMAP
00
ENDCHAR
STARTCHAR 005F
ENCODING 95
SWIDTH 36 0
DWIDTH 1 0
BBX 1 1 0 0
BITMAP
00
ENDCHAR
STARTCHAR 0060
ENCODING 96
SWIDTH 36 0
DWIDTH 1 0
BBX 1 1 0 0
BITMAP
00
ENDCHAR
STARTCHAR 0061
ENCODING 97
SWIDTH 576 0
DWIDTH 16 0
BBX 20 19 -2 0
BITMAP
07F800
07E800
01E000
01E000
00F400
00FC00
02F600
017E00
017E00
01FF00
053F00
073700
0FDF80
0DDF00
1F9F00
1E0E00
1E1F00
9F3FF0
3F1F80
ENDCHAR
STARTCHAR 0062
ENCODING 98
SWIDTH 648 0
DWIDTH 18 0
BBX 16 19 1 0
BITMAP
FEFC
FEFE
7E3E
7E37
7E1F
7E1F
7E3F
7E3E
7EFE
7EFC
7EF6
7C2F
7E1F
7E37
7C35
762C
FE3E
FEFC
FCF8
ENDCHAR
STARTCHAR 0063
ENCODING 99
SWIDTH 648 0
DWIDTH 18 0
BBX 16 19 1 0
BITMAP
01B9
03BF
2307
600F
F007
F007
F803
FC00
FC00
FC00
FC00
F400
FC03
FC03
7C06
7C0E
3E1E
1FBC
07B8
ENDCHAR
STARTCHAR 0064
ENCODING 100
SWIDTH 684 0
DWIDTH 19 0
BBX 17 19 1 0
BITMAP
FC6000
FEFC00
7EFE00
7E1F00
7E1F80
7E1F80
7E0F80
7E1700
7E0F80
7E0D00
7C0F80
7C0F80
7E1700
7E1800
7E1000
7E3A00
7E7F00
78FA00
BCF000
ENDCHAR
STARTCHAR 0065
ENCODING 101
SWIDTH 576 0
DWIDTH 16 0
BBX 14 19 1 0
BITMAP
FEFC
FEFC
7E7C
3E1C
FE0C
FE0C
FE00
FE00
7FE0
7DF0
BDC0
FE00
7E00
7604
7E0C
7E1C
7E2C
FEFC
FEFC
ENDCHAR
STARTCHAR 0066
ENCODING 102
SWIDTH 612 0
DWIDTH 17 0
BBX 15 20 1 -1
BITMAP
7E64
EEFE
FE7E
3E0E
3E06
3E04
2E00
3E00
3F70
3FF8
3FF8
3F00
3F00
3F00
7F00
7E00
7E00
FF00
6100
0200
ENDCHAR
STARTCHAR 0067
ENCODING 103
SWIDTH 684 0
DWIDTH 19 0
BBX 18 20 1 -1
BITMAP
00DE80
07DFC0
1D0FC0
3E03C0
520380
7C0180
200180
500000
300000
0003C0
0033C0
FC3FC0
FC07C0
FC07C0
FC07C0
7E07C0
3E0FC0
3F9FC0
1FD8C0
07C000
ENDCHAR
STARTCHAR 0068
ENCODING 104
SWIDTH 756 0
DWIDTH 21 0
BBX 19 20 1 -1
BITMAP
BD3FE0
FF37E0
FB1FE0
7E1780
7E1580
7E1F80
7E1F80
7E1FC0
7FEF80
7FED80
7FEC00
7E0C00
7E1E00
7E1FC0
7E0EC0
7E1FC0
BE1F40
BF3FE0
FF3FE0
7C0000
ENDCHAR
STARTCHAR 0069
ENCODING 105
SWIDTH 360 0
DWIDTH 10 0
BBX 8 19 1 0
BITMAP
FF
FF
7F
7C
7C
7C
7C
7C
7C
7C
7C
7C
7C
7C
7C
3C
FF
5F
FF
ENDCHAR
STARTCHAR 006A
ENCODING 106
SWIDTH 576 0
DWIDTH 16 0
BBX 15 19 1 0
BITMAP
03F4
07FE
07FE
01F8
00D0
00F8
01F8
01F8
00F8
01F8
01B8
01E8
C1F8
C100
C178
E138
F9E0
FFC0
3FC0
ENDCHAR
STARTCHAR 006B
ENCODING 107
SWIDTH 720 0
DWIDTH 20 0
BBX 18 19 1 0
BITMAP
FF7F80
FF3F80
7E1C00
7E3C00
3A1800
7E7000
76E000
6F6000
7B7000
7FF800
39B800
7E4400
7E4C00
264600
7E0000
7E0800
FE3FC0
BF3FC0
FF3FC0
ENDCHAR
STARTCHAR 006C
ENCODING 108
SWIDTH 576 0
DWIDTH 16 0
BBX 15 19 1 0
BITMAP
FF00
F700
3E00
3C00
7E00
7600
7600
7E00
7E00
7E00
7C00
7C00
7C06
7C06
7E0E
7E0C
7F3E
FF7C
FF7C
ENDCHAR
STARTCHAR 006D
ENCODING 109
SWIDTH 756 0
DWIDTH 21 0
BBX 19 20 1 -1
BITMAP
F407E0
FE0FE0
FA13C0
3F0FC0
3F1FC0
3F3BC0
1FBFC0
1ED7C0
0DDFC0
2FEFC0
3FEFC0
37E7C0
37E7C0
33C5C0
33C7C0
318740
7D87E0
DC8DE0
FC09E0
000800
ENDCHAR
STARTCHAR 006E
ENCODING 110
SWIDTH 684 0
DWIDTH 19 0
BBX 17 19 1 0
BITMAP
0A1F80
790F80
839E00
008A00
4BC400
4FC400
6FE600
77E700
77F700
7BFB00
7BFB00
7DFC00
54FC00
7CFE00
7C7E00
7C7F00
7E3F00
FE3F00
FE1F00
ENDCHAR
STARTCHAR 006F
ENCODING 111
SWIDTH 756 0
DWIDTH 21 0
BBX 19 20 1 -1
BITMAP
001000
002500
2F0B80
3E0FC0
7E07E0
FC07E0
EC0740
DC07E0
FC07E0
FC07E0
FC07E0
EC0720
FC07E0
FC07C0
7C07C0
7E0780
3E0F80
1F9F00
0FBC00
039800
ENDCHAR
STARTCHAR 0070
ENCODING 112
SWIDTH 648 0
DWIDTH 18 0
BBX 17 19 1 0
BITMAP
7C2000
EEFE00
FEFF00
7E1F00
7E1F80
7E1F80
7E1F80
7E1F00
7E1E00
3E7B00
3EFA00
3EFC00
7E0000
7E0000
7E0000
7E0000
7F0000
FF0000
FF0000
ENDCHAR
STARTCHAR 0071
ENCODING 113
SWIDTH 756 0
DWIDTH 21 0
BBX 19 24 1 -5
BITMAP
073800
0DFE00
1F3F00
3C1F80
7C0F80
7C0FC0
FC0FC0
FC0DE0
BC0FE0
F80FE0
FC0FE0
FC0FE0
FC0F60
9C0FE0
7C0FC0
FC0FC0
FC0D80
7A3B00
302000
010000
0000C0
001FC0
000FC0
000780
ENDCHAR
STARTCHAR 0072
ENCODING 114
SWIDTH 684 0
DWIDTH 19 0
BBX 17 19 1 0
BITMAP
FEF800
FEFE00
FEFF00
6E1F00
7E1F00
7E1F00
3C1F00
3C1F00
5C3F00
5EFF00
7EFE00
7EF800
7E7C00
7E7E00
7E7E00
7E3E00
FF3F80
FF3F80
FF1F80
ENDCHAR
STARTCHAR 0073
ENCODING 115
SWIDTH 576 0
DWIDTH 16 0
BBX 15 19 1 0
BITMAP
1EFC
5EFC
783C
F01C
7006
FC00
BF80
CFE0
DFF0
67F0
3FF4
0FF6
01FE
403E
C03E
D03C
F84C
FCF8
9CE0
ENDCHAR
STARTCHAR 0074
ENCODING 116
SWIDTH 648 0
DWIDTH 18 0
BBX 16 19 1 0
BITMAP
C9EC
FBEF
F3EF
E3E7
83E7
83E3
83E2
03E0
03E0
01E0
03E0
03E0
03E0
00E0
0360
03E0
07F8
07F8
03F0
ENDCHAR
STARTCHAR 0075
ENCODING 117
SWIDTH 684 0
DWIDTH 19 0
BBX 17 19 1 0
BITMAP
FB1000
DF3F80
FF1780
7E0E00
7C0600
BE0600
7E0600
7C0600
820600
700600
7E0600
7E0600
7E0400
7E0000
700000
7A0600
7F3C00
3FB800
0FB800
ENDCHAR
STARTCHAR 0076
ENCODING 118
SWIDTH 612 0
DWIDTH 17 0
BBX 19 19 -1 0
BITMAP
7F8F80
FF9FE0
7F0FC0
3F0700
3F0700
3F0700
1F8E00
1F8E00
1F8E00
0FCC00
07DC00
0FD800
0FF800
07E800
02E000
06B000
03F000
01F000
02E000
ENDCHAR
STARTCHAR 0077
ENCODING 119
SWIDTH 756 0
DWIDTH 21 0
BBX 23 19 -1 0
BITMAP
FF9CFE
FFBCFE
F73E3C
3F3E38
3F3E38
3F7E70
277F70
27FF70
1FBF70
17BF60
1FDFA0
07DF20
0BDF80
0BFF80
0FEFC0
0FCFC0
07CF40
07C700
07C700
ENDCHAR
STARTCHAR 0078
ENCODING 120
SWIDTH 576 0
DWIDTH 16 0
BBX 16 19 0 0
BITMAP
FE3F
FF3B
7F1C
1FB0
1FB0
1F10
0FC0
0FC0
07E0
0770
0370
0370
03A8
0DE8
1CE4
1CFC
7CFF
FEDF
FC7B
ENDCHAR
STARTCHAR 0079
ENCODING 121
SWIDTH 576 0
DWIDTH 16 0
BBX 18 19 -1 0
BITMAP
FE0F80
FE0FC0
7F0F00
0F8700
0F8E00
0FDC00
07C800
07E000
03F000
03F000
03E000
039000
031000
033000
037000
01F000
04F800
04F800
07F000
ENDCHAR
STARTCHAR 007A
ENCODING 122
SWIDTH 648 0
DWIDTH 18 0
BBX 16 19 1 0
BITMAP
BF3F
FF7F
D8FF
E0CE
E1FC
C1B8
C3F8
07F0
07E0
0FE0
1FC0
1D80
3F83
3F06
7F0F
FE1E
FEFE
FDFE
F8FC
ENDCHAR
STARTCHAR 007B
ENCODING 123
SWIDTH 36 0
DWIDTH 1 0
BBX 1 1 0 0
BITMAP
00
ENDCHAR
STARTCHAR 007C
ENCODING 124
SWIDTH 36 0
DWIDTH 1 0
BBX 1 1 0 0
BITMAP
00
ENDCHAR
STARTCHAR 007D
ENCODING 125
SWIDTH 36 0
DWIDTH 1 0
BBX 1 1 0 0
BITMAP
00
ENDCHAR
STARTCHAR 007E
ENCODING 126
SWIDTH 36 0
DWIDTH 1 0
BBX 1 1 0 0
BITMAP
00
ENDCHAR
STARTCHAR 00A0
ENCODING 160
SWIDTH 252 0
DWIDTH 7 0
BBX 1 1 0 0
BITMAP
00
ENDCHAR
STARTCHAR 00A1
ENCODING 161
SWIDTH 36 0
DWIDTH 1 0
BBX 1 1 0 0
BITMAP
00
ENDCHAR
STARTCHAR 00A2
ENCODING 162
SWIDTH 36 0
DWIDTH 1 0
BBX 1 1 0 0
BITMAP
00
ENDCHAR
STARTCHAR 00A3
ENCODING 163
SWIDTH 36 0
DWIDTH 1 0
BBX 1 1 0 0
BITMAP
00
ENDCHAR
STARTCHAR 00A4
ENCODING 164
SWIDTH 36 0
DWIDTH 1 0
BBX 1 1 0 0
BITMAP
00
ENDCHAR
STARTCHAR 00A5
ENCODING 165
SWIDTH 36 0
DWIDTH 1 0
BBX 1 1 0 0
BITMAP
00
ENDCHAR
STARTCHAR 00A6
ENCODING 166
SWIDTH 36 0
DWIDTH 1 0
BBX 1 1 0 0
BITMAP
00
ENDCHAR
STARTCHAR 00A7
ENCODING 167
SWIDTH 36 0
DWIDTH 1 0
BBX 1 1 0 0
BITMAP
00
ENDCHAR
STARTCHAR 00A8
ENCODING 168
SWIDTH 36 0
DWIDTH 1 0
BBX 1 1 0 0
BITMAP
00
ENDCHAR
STARTCHAR 00A9
ENCODING 169
SWIDTH 36 0
DWIDTH 1 0
BBX 1 1 0 0
BITMAP
00
ENDCHAR
STARTCHAR 00AA
ENCODING 170
SWIDTH 36 0
DWIDTH 1 0
BBX 1 1 0 0
BITMAP
00
ENDCHAR
STARTCHAR 00AB
ENCODING 171
SWIDTH 36 0
DWIDTH 1 0
BBX 1 1 0 0
BITMAP
00
ENDCHAR
STARTCHAR 00AC
ENCODING 172
SWIDTH 36 0
DWIDTH 1 0
BBX 1 1 0 0
BITMAP
00
ENDCHAR
STARTCHAR 00AD
ENCODING 173
SWIDTH 288 0
DWIDTH 8 0
BBX 6 3 1 9
BITMAP
F4
FC
FC
ENDCHAR
STARTCHAR 00AE
ENCODING 174
SWIDTH 36 0
DWIDTH 1 0
BBX 1 1 0 0
BITMAP
00
ENDCHAR
STARTCHAR 00AF
ENCODING 175
SWIDTH 36 0
DWIDTH 1 0
BBX 1 1 0 0
BITMAP
00
ENDCHAR
STARTCHAR 00B0
ENCODING 176
SWIDTH 36 0
DWIDTH 1 0
BBX 1 1 0 0
BITMAP
00
ENDCHAR
STARTCHAR 00B1
ENCODING 177
SWIDTH 36 0
DWIDTH 1 0
BBX 1 1 0 0
BITMAP
00
ENDCHAR
STARTCHAR 00B2
ENCODING 178
SWIDTH 36 0
DWIDTH 1 0
BBX 1 1 0 0
BITMAP
00
ENDCHAR
STARTCHAR 00B3
ENCODING 179
SWIDTH 36 0
DWIDTH 1 0
BBX 1 1 0 0
BITMAP
00
ENDCHAR
STARTCHAR 00B4
ENCODING 180
SWIDTH 36 0
DWIDTH 1 0
BBX 1 1 0 0
BITMAP
00
ENDCHAR
STARTCHAR 00B5
ENCODING 181
SWIDTH 36 0
DWIDTH 1 0
BBX 1 1 0 0
BITMAP
00
ENDCHAR
STARTCHAR 00B6
ENCODING 182
SWIDTH 36 0
DWIDTH 1 0
BBX 1 1 0 0
BITMAP
00
ENDCHAR
STARTCHAR 00B7
ENCODING 183
SWIDTH 36 0
DWIDTH 1 0
BBX 1 1 0 0
BITMAP
00
ENDCHAR
STARTCHAR 00B8
ENCODING 184
SWIDTH 36 0
DWIDTH 1 0
BBX 1 1 0 0
BITMAP
00
ENDCHAR
STARTCHAR 00B9
ENCODING 185
SWIDTH 36 0
DWIDTH 1 0
BBX 1 1 0 0
BITMAP
00
ENDCHAR
STARTCHAR 00BA
ENCODING 186
SWIDTH 36 0
DWIDTH 1 0
BBX 1 1 0 0
BITMAP
00
ENDCHAR
STARTCHAR 00BB
ENCODING 187
SWIDTH 36 0
DWIDTH 1 0
BBX 1 1 0 0
BITMAP
00
ENDCHAR
STARTCHAR 00BC
ENCODING 188
SWIDTH 36 0
DWIDTH 1 0
BBX 1 1 0 0
BITMAP
00
ENDCHAR
STARTCHAR 00BD
ENCODING 189
SWIDTH 36 0
DWIDTH 1 0
BBX 1 1 0 0
BITMAP
00
ENDCHAR
STARTCHAR 00BE
ENCODING 190
SWIDTH 36 0
DWIDTH 1 0
BBX 1 1 0 0
BITMAP
00
ENDCHAR
STARTCHAR 00BF
ENCODING 191
SWIDTH 36 0
DWIDTH 1 0
BBX 1 1 0 0
BITMAP
00
ENDCHAR
STARTCHAR 00C0
ENCODING 192
SWIDTH 36 0
DWIDTH 1 0
BBX 1 1 0 0
BITMAP
00
ENDCHAR
STARTCHAR 00C1
ENCODING 193
SWIDTH 36 0
DWIDTH 1 0
BBX 1 1 0 0
BITMAP
00
ENDCHAR
STARTCHAR 00C2
ENCODING 194
SWIDTH 36 0
DWIDTH 1 0
BBX 1 1 0 0
BITMAP
00
ENDCHAR
STARTCHAR 00C3
ENCODING 195
SWIDTH 36 0
DWIDTH 1 0
BBX 1 1 0 0
BITMAP
00
ENDCHAR
STARTCHAR 00C4
ENCODING 196
SWIDTH 36 0
DWIDTH 1 0
BBX 1 1 0 0
BITMAP
00
ENDCHAR
STARTCHAR 00C5
ENCODING 197
SWIDTH 36 0
DWIDTH 1 0
BBX 1 1 0 0
BITMAP
00
ENDCHAR
STARTCHAR 00C6
ENCODING 198
SWIDTH 36 0
DWIDTH 1 0
BBX 1 1 0 0
BITMAP
00
ENDCHAR
STARTCHAR 00C7
ENCODING 199
SWIDTH 36 0
DWIDTH 1 0
BBX 1 1 0 0
BITMAP
00
ENDCHAR
STARTCHAR 00C8
ENCODING 200
SWIDTH 36 0
DWIDTH 1 0
BBX 1 1 0 0
BITMAP
00
ENDCHAR
STARTCHAR 00C9
ENCODING 201
SWIDTH 36 0
DWIDTH 1 0
BBX 1 1 0 0
BITMAP
00
ENDCHAR
STARTCHAR 00CA
ENCODING 202
SWIDTH 36 0
DWIDTH 1 0
BBX 1 1 0 0
BITMAP
00
ENDCHAR
STARTCHAR 00CB
ENCODING 203
SWIDTH 36 0
DWIDTH 1 0
BBX 1 1 0 0
BITMAP
00
ENDCHAR
STARTCHAR 00CC
ENCODING 204
SWIDTH 36 0
DWIDTH 1 0
BBX 1 1 0 0
BITMAP
00
ENDCHAR
STARTCHAR 00CD
ENCODING 205
SWIDTH 36 0
DWIDTH 1 0
BBX 1 1 0 0
BITMAP
00
ENDCHAR
STARTCHAR 00CE
ENCODING 206
SWIDTH 36 0
DWIDTH 1 0
BBX 1 1 0 0
BITMAP
00
ENDCHAR
STARTCHAR 00CF
ENCODING 207
SWIDTH 36 0
DWIDTH 1 0
BBX 1 1 0 0
BITMAP
00
ENDCHAR
STARTCHAR 00D0
ENCODING 208
SWIDTH 36 0
DWIDTH 1 0
BBX 1 1 0 0
BITMAP
00
ENDCHAR
STARTCHAR 00D1
ENCODING 209
SWIDTH 36 0
DWIDTH 1 0
BBX 1 1 0 0
BITMAP
00
ENDCHAR
STARTCHAR 00D2
ENCODING 210
SWIDTH 36 0
DWIDTH 1 0
BBX 1 1 0 0
BITMAP
00
ENDCHAR
STARTCHAR 00D3
ENCODING 211
SWIDTH 36 0
DWIDTH 1 0
BBX 1 1 0 0
BITMAP
00
ENDCHAR
STARTCHAR 00D4
ENCODING 212
SWIDTH 36 0
DWIDTH 1 0
BBX 1 1 0 0
BITMAP
00
ENDCHAR
STARTCHAR 00D5
ENCODING 213
SWIDTH 36 0
DWIDTH 1 0
BBX 1 1 0 0
BITMAP
00
ENDCHAR
STARTCHAR 00D6
ENCODING 214
SWIDTH 36 0
DWIDTH 1 0
BBX 1 1 0 0
BITMAP
00
ENDCHAR
STARTCHAR 00D7
ENCODING 215
SWIDTH 36 0
DWIDTH 1 0
BBX 1 1 0 0
BITMAP
00
ENDCHAR
STARTCHAR 00D8
ENCODING 216
SWIDTH 36 0
DWIDTH 1 0
BBX 1 1 0 0
BITMAP
00
ENDCHAR
STARTCHAR 00D9
ENCODING 217
SWIDTH 36 0
DWIDTH 1 0
BBX 1 1 0 0
BITMAP
00
ENDCHAR
STARTCHAR 00DA
ENCODING 218
SWIDTH 36 0
DWIDTH 1 0
BBX 1 1 0 0
BITMAP
00
ENDCHAR
STARTCHAR 00DB
ENCODING 219
SWIDTH 36 0
DWIDTH 1 0
BBX 1 1 0 0
BITMAP
00
ENDCHAR
STARTCHAR 00DC
ENCODING 220
SWIDTH 36 0
DWIDTH 1 0
BBX 1 1 0 0
BITMAP
00
ENDCHAR
STARTCHAR 00DD
ENCODING 221
SWIDTH 36 0
DWIDTH 1 0
BBX 1 1 0 0
BITMAP
00
ENDCHAR
STARTCHAR 00DE
ENCODING 222
SWIDTH 36 0
DWIDTH 1 0
BBX 1 1 0 0
BITMAP
00
ENDCHAR
STARTCHAR 00DF
ENCODING 223
SWIDTH 36 0
DWIDTH 1 0
BBX 1 1 0 0
BITMAP
00
ENDCHAR
STARTCHAR 00E0
ENCODING 224
SWIDTH 36 0
DWIDTH 1 0
BBX 1 1 0 0
BITMAP
00
ENDCHAR
STARTCHAR 00E1
ENCODING 225
SWIDTH 36 0
DWIDTH 1 0
BBX 1 1 0 0
BITMAP
00
ENDCHAR
STARTCHAR 00E2
ENCODING 226
SWIDTH 36 0
DWIDTH 1 0
BBX 1 1 0 0
BITMAP
00
ENDCHAR
STARTCHAR 00E3
ENCODING 227
SWIDTH 36 0
DWIDTH 1 0
BBX 1 1 0 0
BITMAP
00
ENDCHAR
STARTCHAR 00E4
ENCODING 228
SWIDTH 36 0
DWIDTH 1 0
BBX 1 1 0 0
BITMAP
00
ENDCHAR
STARTCHAR 00E5
ENCODING 229
SWIDTH 36 0
DWIDTH 1 0
BBX 1 1 0 0
BITMAP
00
ENDCHAR
STARTCHAR 00E6
ENCODING 230
SWIDTH 36 0
DWIDTH 1 0
BBX 1 1 0 0
BITMAP
00
ENDCHAR
STARTCHAR 00E7
ENCODING 231
SWIDTH 36 0
DWIDTH 1 0
BBX 1 1 0 0
BITMAP
00
ENDCHAR
STARTCHAR 00E8
ENCODING 232
SWIDTH 36 0
DWIDTH 1 0
BBX 1 1 0 0
BITMAP
00
ENDCHAR
STARTCHAR 00E9
ENCODING 233
SWIDTH 36 0
DWIDTH 1 0
BBX 1 1 0 0
BITMAP
00
ENDCHAR
STARTCHAR 00EA
ENCODING 234
SWIDTH 36 0
DWIDTH 1 0
BBX 1 1 0 0
BITMAP
00
ENDCHAR
STARTCHAR 00EB
ENCODING 235
SWIDTH 36 0
DWIDTH 1 0
BBX 1 1 0 0
BITMAP
00
ENDCHAR
STARTCHAR 00EC
ENCODING 236
SWIDTH 36 0
DWIDTH 1 0
BBX 1 1 0 0
BITMAP
00
ENDCHAR
STARTCHAR 00ED
ENCODING 237
SWIDTH 36 0
DWIDTH 1 0
BBX 1 1 0 0
BITMAP
00
ENDCHAR
STARTCHAR 00EE
ENCODING 238
SWIDTH 36 0
DWIDTH 1 0
BBX 1 1 0 0
BITMAP
00
ENDCHAR
STARTCHAR 00EF
ENCODING 239
SWIDTH 36 0
DWIDTH 1 0
BBX 1 1 0 0
BITMAP
00
ENDCHAR
STARTCHAR 00F0
ENCODING 240
SWIDTH 36 0
DWIDTH 1 0
BBX 1 1 0 0
BITMAP
00
ENDCHAR
STARTCHAR 00F1
ENCODING 241
SWIDTH 36 0
DWIDTH 1 0
BBX 1 1 0 0
BITMAP
00
ENDCHAR
STARTCHAR 00F2
ENCODING 242
SWIDTH 36 0
DWIDTH 1 0
BBX 1 1 0 0
BITMAP
00
ENDCHAR
STARTCHAR 00F3
ENCODING 243
SWIDTH 36 0
DWIDTH 1 0
BBX 1 1 0 0
BITMAP
00
ENDCHAR
STARTCHAR 00F4
ENCODING 244
SWIDTH 36 0
DWIDTH 1 0
BBX 1 1 0 0
BITMAP
00
ENDCHAR
STARTCHAR 00F5
ENCODING 245
SWIDTH 36 0
DWIDTH 1 0
BBX 1 1 0 0
BITMAP
00
ENDCHAR
STARTCHAR 00F6
ENCODING 246
SWIDTH 36 0
DWIDTH 1 0
BBX 1 1 0 0
BITMAP
00
ENDCHAR
STARTCHAR 00F7
ENCODING 247
SWIDTH 36 0
DWIDTH 1 0
BBX 1 1 0 0
BITMAP
00
ENDCHAR
STARTCHAR 00F8
ENCODING 248
SWIDTH 36 0
DWIDTH 1 0
BBX 1 1 0 0
BITMAP
00
ENDCHAR
STARTCHAR 00F9
ENCODING 249
SWIDTH 36 0
DWIDTH 1 0
BBX 1 1 0 0
BITMAP
00
ENDCHAR
STARTCHAR 00FA
ENCODING 250
SWIDTH 36 0
DWIDTH 1 0
BBX 1 1 0 0
BITMAP
00
ENDCHAR
STARTCHAR 00FB
ENCODING 251
SWIDTH 36 0
DWIDTH 1 0
BBX 1 1 0 0
BITMAP
00
ENDCHAR
STARTCHAR 00FC
ENCODING 252
SWIDTH 36 0
DWIDTH 1 0
BBX 1 1 0 0
BITMAP
00
ENDCHAR
STARTCHAR 00FD
ENCODING 253
SWIDTH 36 0
DWIDTH 1 0
BBX 1 1 0 0
BITMAP
00
ENDCHAR
STARTCHAR 00FE
ENCODING 254
SWIDTH 36 0
DWIDTH 1 0
BBX 1 1 0 0
BITMAP
00
ENDCHAR
STARTCHAR 00FF
ENCODING 255
SWIDTH 36 0
DWIDTH 1 0
BBX 1 1 0 0
BITMAP
00
ENDCHAR
STARTCHAR 0100
ENCODING 256
SWIDTH 36 0
DWIDTH 1 0
BBX 1 1 0 0
BITMAP
00
ENDCHAR
STARTCHAR 0101
ENCODING 257
SWIDTH 36 0
DWIDTH 1 0
BBX 1 1 0 0
BITMAP
00
ENDCHAR
STARTCHAR 0102
ENCODING 258
SWIDTH 36 0
DWIDTH 1 0
BBX 1 1 0 0
BITMAP
00
ENDCHAR
STARTCHAR 0103
ENCODING 259
SWIDTH 36 0
DWIDTH 1 0
BBX 1 1 0 0
BITMAP
00
ENDCHAR
STARTCHAR 0104
ENCODING 260
SWIDTH 36 0
DWIDTH 1 0
BBX 1 1 0 0
BITMAP
00
ENDCHAR
STARTCHAR 0105
ENCODING 261
SWIDTH 36 0
DWIDTH 1 0
BBX 1 1 0 0
BITMAP
00
ENDCHAR
STARTCHAR 0106
ENCODING 262
SWIDTH 36 0
DWIDTH 1 0
BBX 1 1 0 0
BITMAP
00
ENDCHAR
STARTCHAR 0107
ENCODING 263
SWIDTH 36 0
DWIDTH 1 0
BBX 1 1 0 0
BITMAP
00
ENDCHAR
STARTCHAR 0108
ENCODING 264
SWIDTH 36 0
DWIDTH 1 0
BBX 1 1 0 0
BITMAP
00
ENDCHAR
STARTCHAR 0109
ENCODING 265
SWIDTH 36 0
DWIDTH 1 0
BBX 1 1 0 0
BITMAP
00
ENDCHAR
STARTCHAR 010A
ENCODING 266
SWIDTH 36 0
DWIDTH 1 0
BBX 1 1 0 0
BITMAP
00
ENDCHAR
STARTCHAR 010B
ENCODING 267
SWIDTH 36 0
DWIDTH 1 0
BBX 1 1 0 0
BITMAP
00
ENDCHAR
STARTCHAR 010C
ENCODING 268
SWIDTH 36 0
DWIDTH 1 0
BBX 1 1 0 0
BITMAP
00
ENDCHAR
STARTCHAR 010D
ENCODING 269
SWIDTH 36 0
DWIDTH 1 0
BBX 1 1 0 0
BITMAP
00
ENDCHAR
STARTCHAR 010E
ENCODING 270
SWIDTH 36 0
DWIDTH 1 0
BBX 1 1 0 0
BITMAP
00
ENDCHAR
STARTCHAR 010F
ENCODING 271
SWIDTH 36 0
DWIDTH 1 0
BBX 1 1 0 0
BITMAP
00
ENDCHAR
STARTCHAR 0110
ENCODING 272
SWIDTH 36 0
DWIDTH 1 0
BBX 1 1 0 0
BITMAP
00
ENDCHAR
STARTCHAR 0111
ENCODING 273
SWIDTH 36 0
DWIDTH 1 0
BBX 1 1 0 0
BITMAP
00
ENDCHAR
STARTCHAR 0112
ENCODING 274
SWIDTH 36 0
DWIDTH 1 0
BBX 1 1 0 0
BITMAP
00
ENDCHAR
STARTCHAR 0113
ENCODING 275
SWIDTH 36 0
DWIDTH 1 0
BBX 1 1 0 0
BITMAP
00
ENDCHAR
STARTCHAR 0114
ENCODING 276
SWIDTH 36 0
DWIDTH 1 0
BBX 1 1 0 0
BITMAP
00
ENDCHAR
STARTCHAR 0115
ENCODING 277
SWIDTH 36 0
DWIDTH 1 0
BBX 1 1 0 0
BITMAP
00
ENDCHAR
STARTCHAR 0116
ENCODING 278
SWIDTH 36 0
DWIDTH 1 0
BBX 1 1 0 0
BITMAP
00
ENDCHAR
STARTCHAR 0117
ENCODING 279
SWIDTH 36 0
DWIDTH 1 0
BBX 1 1 0 0
BITMAP
00
ENDCHAR
STARTCHAR 0118
ENCODING 280
SWIDTH 36 0
DWIDTH 1 0
BBX 1 1 0 0
BITMAP
00
ENDCHAR
STARTCHAR 0119
ENCODING 281
SWIDTH 36 0
DWIDTH 1 0
BBX 1 1 0 0
BITMAP
00
ENDCHAR
STARTCHAR 011A
ENCODING 282
SWIDTH 36 0
DWIDTH 1 0
BBX 1 1 0 0
BITMAP
00
ENDCHAR
STARTCHAR 011B
ENCODING 283
SWIDTH 36 0
DWIDTH 1 0
BBX 1 1 0 0
BITMAP
00
ENDCHAR
STARTCHAR 011C
ENCODING 284
SWIDTH 36 0
DWIDTH 1 0
BBX 1 1 0 0
BITMAP
00
ENDCHAR
STARTCHAR 011D
ENCODING 285
SWIDTH 36 0
DWIDTH 1 0
BBX 1 1 0 0
BITMAP
00
ENDCHAR
STARTCHAR 011E
ENCODING 286
SWIDTH 36 0
DWIDTH 1 0
BBX 1 1 0 0
BITMAP
00
ENDCHAR
STARTCHAR 011F
ENCODING 287
SWIDTH 36 0
DWIDTH 1 0
BBX 1 1 0 0
BITMAP
00
ENDCHAR
STARTCHAR 0120
ENCODING 288
SWIDTH 36 0
DWIDTH 1 0
BBX 1 1 0 0
BITMAP
00
ENDCHAR
STARTCHAR 0121
ENCODING 289
SWIDTH 36 0
DWIDTH 1 0
BBX 1 1 0 0
BITMAP
00
ENDCHAR
STARTCHAR 0122
ENCODING 290
SWIDTH 36 0
DWIDTH 1 0
BBX 1 1 0 0
BITMAP
00
ENDCHAR
STARTCHAR 0123
ENCODING 291
SWIDTH 36 0
DWIDTH 1 0
BBX 1 1 0 0
BITMAP
00
ENDCHAR
STARTCHAR 0124
ENCODING 292
SWIDTH 36 0
DWIDTH 1 0
BBX 1 1 0 0
BITMAP
00
ENDCHAR
STARTCHAR 0125
ENCODING 293
SWIDTH 36 0
DWIDTH 1 0
BBX 1 1 0 0
BITMAP
00
ENDCHAR
STARTCHAR 0126
ENCODING 294
SWIDTH 36 0
DWIDTH 1 0
BBX 1 1 0 0
BITMAP
00
ENDCHAR
STARTCHAR 0127
ENCODING 295
SWIDTH 36 0
DWIDTH 1 0
BBX 1 1 0 0
BITMAP
00
ENDCHAR
STARTCHAR 0128
ENCODING 296
SWIDTH 36 0
DWIDTH 1 0
BBX 1 1 0 0
BITMAP
00
ENDCHAR
STARTCHAR 0129
ENCODING 297
SWIDTH 36 0
DWIDTH 1 0
BBX 1 1 0 0
BITMAP
00
ENDCHAR
STARTCHAR 012A
ENCODING 298
SWIDTH 36 0
DWIDTH 1 0
BBX 1 1 0 0
BITMAP
00
ENDCHAR
STARTCHAR 012B
ENCODING 299
SWIDTH 36 0
DWIDTH 1 0
BBX 1 1 0 0
BITMAP
00
ENDCHAR
STARTCHAR 012C
ENCODING 300
SWIDTH 36 0
DWIDTH 1 0
BBX 1 1 0 0
BITMAP
00
ENDCHAR
STARTCHAR 012D
ENCODING 301
SWIDTH 36 0
DWIDTH 1 0
BBX 1 1 0 0
BITMAP
00
ENDCHAR
STARTCHAR 012E
ENCODING 302
SWIDTH 36 0
DWIDTH 1 0
BBX 1 1 0 0
BITMAP
00
ENDCHAR
STARTCHAR 012F
ENCODING 303
SWIDTH 36 0
DWIDTH 1 0
BBX 1 1 0 0
BITMAP
00
ENDCHAR
STARTCHAR 0130
ENCODING 304
SWIDTH 36 0
DWIDTH 1 0
BBX 1 1 0 0
BITMAP
00
ENDCHAR
STARTCHAR 0131
ENCODING 305
SWIDTH 36 0
DWIDTH 1 0
BBX 1 1 0 0
BITMAP
00
ENDCHAR
STARTCHAR 0132
ENCODING 306
SWIDTH 36 0
DWIDTH 1 0
BBX 1 1 0 0
BITMAP
00
ENDCHAR
STARTCHAR 0133
ENCODING 307
SWIDTH 36 0
DWIDTH 1 0
BBX 1 1 0 0
BITMAP
00
ENDCHAR
STARTCHAR 0134
ENCODING 308
SWIDTH 36 0
DWIDTH 1 0
BBX 1 1 0 0
BITMAP
00
ENDCHAR
STARTCHAR 0135
ENCODING 309
SWIDTH 36 0
DWIDTH 1 0
BBX 1 1 0 0
BITMAP
00
ENDCHAR
STARTCHAR 0136
ENCODING 310
SWIDTH 36 0
DWIDTH 1 0
BBX 1 1 0 0
BITMAP
00
ENDCHAR
STARTCHAR 0137
ENCODING 311
SWIDTH 36 0
DWIDTH 1 0
BBX 1 1 0 0
BITMAP
00
ENDCHAR
STARTCHAR 0138
ENCODING 312
SWIDTH 36 0
DWIDTH 1 0
BBX 1 1 0 0
BITMAP
00
ENDCHAR
STARTCHAR 0139
ENCODING 313
SWIDTH 36 0
DWIDTH 1 0
BBX 1 1 0 0
BITMAP
00
ENDCHAR
STARTCHAR 013A
ENCODING 314
SWIDTH 36 0
DWIDTH 1 0
BBX 1 1 0 0
BITMAP
00
ENDCHAR
STARTCHAR 013B
ENCODING 315
SWIDTH 36 0
DWIDTH 1 0
BBX 1 1 0 0
BITMAP
00
ENDCHAR
STARTCHAR 013C
ENCODING 316
SWIDTH 36 0
DWIDTH 1 0
BBX 1 1 0 0
BITMAP
00
ENDCHAR
STARTCHAR 013D
ENCODING 317
SWIDTH 36 0
DWIDTH 1 0
BBX 1 1 0 0
BITMAP
00
ENDCHAR
STARTCHAR 013E
ENCODING 318
SWIDTH 36 0
DWIDTH 1 0
BBX 1 1 0 0
BITMAP
00
ENDCHAR
STARTCHAR 013F
ENCODING 319
SWIDTH 36 0
DWIDTH 1 0
BBX 1 1 0 0
BITMAP
00
ENDCHAR
STARTCHAR 0140
ENCODING 320
SWIDTH 36 0
DWIDTH 1 0
BBX 1 1 0 0
BITMAP
00
ENDCHAR
STARTCHAR 0141
ENCODING 321
SWIDTH 36 0
DWIDTH 1 0
BBX 1 1 0 0
BITMAP
00
ENDCHAR
STARTCHAR 0142
ENCODING 322
SWIDTH 36 0
DWIDTH 1 0
BBX 1 1 0 0
BITMAP
00
ENDCHAR
STARTCHAR 0143
ENCODING 323
SWIDTH 36 0
DWIDTH 1 0
BBX 1 1 0 0
BITMAP
00
ENDCHAR
STARTCHAR 0144
ENCODING 324
SWIDTH 36 0
DWIDTH 1 0
BBX 1 1 0 0
BITMAP
00
ENDCHAR
STARTCHAR 0145
ENCODING 325
SWIDTH 36 0
DWIDTH 1 0
BBX 1 1 0 0
BITMAP
00
ENDCHAR
STARTCHAR 0146
ENCODING 326
SWIDTH 36 0
DWIDTH 1 0
BBX 1 1 0 0
BITMAP
00
ENDCHAR
STARTCHAR 0147
ENCODING 327
SWIDTH 36 0
DWIDTH 1 0
BBX 1 1 0 0
BITMAP
00
ENDCHAR
STARTCHAR 0148
ENCODING 328
SWIDTH 36 0
DWIDTH 1 0
BBX 1 1 0 0
BITMAP
00
ENDCHAR
STARTCHAR 0149
ENCODING 329
SWIDTH 36 0
DWIDTH 1 0
BBX 1 1 0 0
BITMAP
00
ENDCHAR
STARTCHAR 014A
ENCODING 330
SWIDTH 36 0
DWIDTH 1 0
BBX 1 1 0 0
BITMAP
00
ENDCHAR
STARTCHAR 014B
ENCODING 331
SWIDTH 36 0
DWIDTH 1 0
BBX 1 1 0 0
BITMAP
00
ENDCHAR
STARTCHAR 014C
ENCODING 332
SWIDTH 36 0
DWIDTH 1 0
BBX 1 1 0 0
BITMAP
00
ENDCHAR
STARTCHAR 014D
ENCODING 333
SWIDTH 36 0
DWIDTH 1 0
BBX 1 1 0 0
BITMAP
00
ENDCHAR
STARTCHAR 014E
ENCODING 334
SWIDTH 36 0
DWIDTH 1 0
BBX 1 1 0 0
BITMAP
00
ENDCHAR
STARTCHAR 014F
ENCODING 335
SWIDTH 36 0
DWIDTH 1 0
BBX 1 1 0 0
BITMAP
00
ENDCHAR
STARTCHAR 0150
ENCODING 336
SWIDTH 36 0
DWIDTH 1 0
BBX 1 1 0 0
BITMAP
00
ENDCHAR
STARTCHAR 0151
ENCODING 337
SWIDTH 36 0
DWIDTH 1 0
BBX 1 1 0 0
BITMAP
00
ENDCHAR
STARTCHAR 0152
ENCODING 338
SWIDTH 36 0
DWIDTH 1 0
BBX 1 1 0 0
BITMAP
00
ENDCHAR
STARTCHAR 0153
ENCODING 339
SWIDTH 36 0
DWIDTH 1 0
BBX 1 1 0 0
BITMAP
00
ENDCHAR
STARTCHAR 0154
ENCODING 340
SWIDTH 36 0
DWIDTH 1 0
BBX 1 1 0 0
BITMAP
00
ENDCHAR
STARTCHAR 0155
ENCODING 341
SWIDTH 36 0
DWIDTH 1 0
BBX 1 1 0 0
BITMAP
00
ENDCHAR
STARTCHAR 0156
ENCODING 342
SWIDTH 36 0
DWIDTH 1 0
BBX 1 1 0 0
BITMAP
00
ENDCHAR
STARTCHAR 0157
ENCODING 343
SWIDTH 36 0
DWIDTH 1 0
BBX 1 1 0 0
BITMAP
00
ENDCHAR
STARTCHAR 0158
ENCODING 344
SWIDTH 36 0
DWIDTH 1 0
BBX 1 1 0 0
BITMAP
00
ENDCHAR
STARTCHAR 0159
ENCODING 345
SWIDTH 36 0
DWIDTH 1 0
BBX 1 1 0 0
BITMAP
00
ENDCHAR
STARTCHAR 015A
ENCODING 346
SWIDTH 36 0
DWIDTH 1 0
BBX 1 1 0 0
BITMAP
00
ENDCHAR
STARTCHAR 015B
ENCODING 347
SWIDTH 36 0
DWIDTH 1 0
BBX 1 1 0 0
BITMAP
00
ENDCHAR
STARTCHAR 015C
ENCODING 348
SWIDTH 36 0
DWIDTH 1 0
BBX 1 1 0 0
BITMAP
00
ENDCHAR
STARTCHAR 015D
ENCODING 349
SWIDTH 36 0
DWIDTH 1 0
BBX 1 1 0 0
BITMAP
00
ENDCHAR
STARTCHAR 015E
ENCODING 350
SWIDTH 36 0
DWIDTH 1 0
BBX 1 1 0 0
BITMAP
00
ENDCHAR
STARTCHAR 015F
ENCODING 351
SWIDTH 36 0
DWIDTH 1 0
BBX 1 1 0 0
BITMAP
00
ENDCHAR
STARTCHAR 0160
ENCODING 352
SWIDTH 36 0
DWIDTH 1 0
BBX 1 1 0 0
BITMAP
00
ENDCHAR
STARTCHAR 0161
ENCODING 353
SWIDTH 36 0
DWIDTH 1 0
BBX 1 1 0 0
BITMAP
00
ENDCHAR
STARTCHAR 0162
ENCODING 354
SWIDTH 36 0
DWIDTH 1 0
BBX 1 1 0 0
BITMAP
00
ENDCHAR
STARTCHAR 0163
ENCODING 355
SWIDTH 36 0
DWIDTH 1 0
BBX 1 1 0 0
BITMAP
00
ENDCHAR
STARTCHAR 0164
ENCODING 356
SWIDTH 36 0
DWIDTH 1 0
BBX 1 1 0 0
BITMAP
00
ENDCHAR
STARTCHAR 0165
ENCODING 357
SWIDTH 36 0
DWIDTH 1 0
BBX 1 1 0 0
BITMAP
00
ENDCHAR
STARTCHAR 0166
ENCODING 358
SWIDTH 36 0
DWIDTH 1 0
BBX 1 1 0 0
BITMAP
00
ENDCHAR
STARTCHAR 0167
ENCODING 359
SWIDTH 36 0
DWIDTH 1 0
BBX 1 1 0 0
BITMAP
00
ENDCHAR
STARTCHAR 0168
ENCODING 360
SWIDTH 36 0
DWIDTH 1 0
BBX 1 1 0 0
BITMAP
00
ENDCHAR
STARTCHAR 0169
ENCODING 361
SWIDTH 36 0
DWIDTH 1 0
BBX 1 1 0 0
BITMAP
00
ENDCHAR
STARTCHAR 016A
ENCODING 362
SWIDTH 36 0
DWIDTH 1 0
BBX 1 1 0 0
BITMAP
00
ENDCHAR
STARTCHAR 016B
ENCODING 363
SWIDTH 36 0
DWIDTH 1 0
BBX 1 1 0 0
BITMAP
00
ENDCHAR
STARTCHAR 016C
ENCODING 364
SWIDTH 36 0
DWIDTH 1 0
BBX 1 1 0 0
BITMAP
00
ENDCHAR
STARTCHAR 016D
ENCODING 365
SWIDTH 36 0
DWIDTH 1 0
BBX 1 1 0 0
BITMAP
00
ENDCHAR
STARTCHAR 016E
ENCODING 366
SWIDTH 36 0
DWIDTH 1 0
BBX 1 1 0 0
BITMAP
00
ENDCHAR
STARTCHAR 016F
ENCODING 367
SWIDTH 36 0
DWIDTH 1 0
BBX 1 1 0 0
BITMAP
00
ENDCHAR
STARTCHAR 0170
ENCODING 368
SWIDTH 36 0
DWIDTH 1 0
BBX 1 1 0 0
BITMAP
00
ENDCHAR
STARTCHAR 0171
ENCODING 369
SWIDTH 36 0
DWIDTH 1 0
BBX 1 1 0 0
BITMAP
00
ENDCHAR
STARTCHAR 0172
ENCODING 370
SWIDTH 36 0
DWIDTH 1 0
BBX 1 1 0 0
BITMAP
00
ENDCHAR
STARTCHAR 0173
ENCODING 371
SWIDTH 36 0
DWIDTH 1 0
BBX 1 1 0 0
BITMAP
00
ENDCHAR
STARTCHAR 0174
ENCODING 372
SWIDTH 36 0
DWIDTH 1 0
BBX 1 1 0 0
BITMAP
00
ENDCHAR
STARTCHAR 0175
ENCODING 373
SWIDTH 36 0
DWIDTH 1 0
BBX 1 1 0 0
BITMAP
00
ENDCHAR
STARTCHAR 0176
ENCODING 374
SWIDTH 36 0
DWIDTH 1 0
BBX 1 1 0 0
BITMAP
00
ENDCHAR
STARTCHAR 0177
ENCODING 375
SWIDTH 36 0
DWIDTH 1 0
BBX 1 1 0 0
BITMAP
00
ENDCHAR
STARTCHAR 0178
ENCODING 376
SWIDTH 36 0
DWIDTH 1 0
BBX 1 1 0 0
BITMAP
00
ENDCHAR
STARTCHAR 0179
ENCODING 377
SWIDTH 36 0
DWIDTH 1 0
BBX 1 1 0 0
BITMAP
00
ENDCHAR
STARTCHAR 017A
ENCODING 378
SWIDTH 36 0
DWIDTH 1 0
BBX 1 1 0 0
BITMAP
00
ENDCHAR
STARTCHAR 017B
ENCODING 379
SWIDTH 36 0
DWIDTH 1 0
BBX 1 1 0 0
BITMAP
00
ENDCHAR
STARTCHAR 017C
ENCODING 380
SWIDTH 36 0
DWIDTH 1 0
BBX 1 1 0 0
BITMAP
00
ENDCHAR
STARTCHAR 017D
ENCODING 381
SWIDTH 36 0
DWIDTH 1 0
BBX 1 1 0 0
BITMAP
00
ENDCHAR
STARTCHAR 017E
ENCODING 382
SWIDTH 36 0
DWIDTH 1 0
BBX 1 1 0 0
BITMAP
00
ENDCHAR
STARTCHAR 017F
ENCODING 383
SWIDTH 36 0
DWIDTH 1 0
BBX 1 1 0 0
BITMAP
00
ENDCHAR
STARTCHAR 0192
ENCODING 402
SWIDTH 36 0
DWIDTH 1 0
BBX 1 1 0 0
BITMAP
00
ENDCHAR
STARTCHAR 01FA
ENCODING 506
SWIDTH 36 0
DWIDTH 1 0
BBX 1 1 0 0
BITMAP
00
ENDCHAR
STARTCHAR 01FB
ENCODING 507
SWIDTH 36 0
DWIDTH 1 0
BBX 1 1 0 0
BITMAP
00
ENDCHAR
STARTCHAR 01FC
ENCODING 508
SWIDTH 36 0
DWIDTH 1 0
BBX 1 1 0 0
BITMAP
00
ENDCHAR
STARTCHAR 01FD
ENCODING 509
SWIDTH 36 0
DWIDTH 1 0
BBX 1 1 0 0
BITMAP
00
ENDCHAR
STARTCHAR 01FE
ENCODING 510
SWIDTH 36 0
DWIDTH 1 0
BBX 1 1 0 0
BITMAP
00
ENDCHAR
STARTCHAR 01FF
ENCODING 511
SWIDTH 36 0
DWIDTH 1 0
BBX 1 1 0 0
BITMAP
00
ENDCHAR
STARTCHAR 02C6
ENCODING 710
SWIDTH 36 0
DWIDTH 1 0
BBX 1 1 0 0
BITMAP
00
ENDCHAR
STARTCHAR 02C7
ENCODING 711
SWIDTH 36 0
DWIDTH 1 0
BBX 1 1 0 0
BITMAP
00
ENDCHAR
STARTCHAR 02C9
ENCODING 713
SWIDTH 36 0
DWIDTH 1 0
BBX 1 1 0 0
BITMAP
00
ENDCHAR
STARTCHAR 02D8
ENCODING 728
SWIDTH 36 0
DWIDTH 1 0
BBX 1 1 0 0
BITMAP
00
ENDCHAR
STARTCHAR 02D9
ENCODING 729
SWIDTH 36 0
DWIDTH 1 0
BBX 1 1 0 0
BITMAP
00
ENDCHAR
STARTCHAR 02DA
ENCODING 730
SWIDTH 36 0
DWIDTH 1 0
BBX 1 1 0 0
BITMAP
00
ENDCHAR
STARTCHAR 02DB
ENCODING 731
SWIDTH 36 0
DWIDTH 1 0
BBX 1 1 0 0
BITMAP
00
ENDCHAR
STARTCHAR 02DC
ENCODING 732
SWIDTH 36 0
DWIDTH 1 0
BBX 1 1 0 0
BITMAP
00
ENDCHAR
STARTCHAR 02DD
ENCODING 733
SWIDTH 36 0
DWIDTH 1 0
BBX 1 1 0 0
BITMAP
00
ENDCHAR
STARTCHAR 037E
ENCODING 894
SWIDTH 36 0
DWIDTH 1 0
BBX 1 1 0 0
BITMAP
00
ENDCHAR
STARTCHAR 0384
ENCODING 900
SWIDTH 36 0
DWIDTH 1 0
BBX 1 1 0 0
BITMAP
00
ENDCHAR
STARTCHAR 0385
ENCODING 901
SWIDTH 36 0
DWIDTH 1 0
BBX 1 1 0 0
BITMAP
00
ENDCHAR
STARTCHAR 0386
ENCODING 902
SWIDTH 36 0
DWIDTH 1 0
BBX 1 1 0 0
BITMAP
00
ENDCHAR
STARTCHAR 0387
ENCODING 903
SWIDTH 36 0
DWIDTH 1 0
BBX 1 1 0 0
BITMAP
00
ENDCHAR
STARTCHAR 0388
ENCODING 904
SWIDTH 36 0
DWIDTH 1 0
BBX 1 1 0 0
BITMAP
00
ENDCHAR
STARTCHAR 0389
ENCODING 905
SWIDTH 36 0
DWIDTH 1 0
BBX 1 1 0 0
BITMAP
00
ENDCHAR
STARTCHAR 038A
ENCODING 906
SWIDTH 36 0
DWIDTH 1 0
BBX 1 1 0 0
BITMAP
00
ENDCHAR
STARTCHAR 038C
ENCODING 908
SWIDTH 36 0
DWIDTH 1 0
BBX 1 1 0 0
BITMAP
00
ENDCHAR
STARTCHAR 038E
ENCODING 910
SWIDTH 36 0
DWIDTH 1 0
BBX 1 1 0 0
BITMAP
00
ENDCHAR
STARTCHAR 038F
ENCODING 911
SWIDTH 36 0
DWIDTH 1 0
BBX 1 1 0 0
BITMAP
00
ENDCHAR
STARTCHAR 0390
ENCODING 912
SWIDTH 36 0
DWIDTH 1 0
BBX 1 1 0 0
BITMAP
00
ENDCHAR
STARTCHAR 0391
ENCODING 913
SWIDTH 36 0
DWIDTH 1 0
BBX 1 1 0 0
BITMAP
00
ENDCHAR
STARTCHAR 0392
ENCODING 914
SWIDTH 36 0
DWIDTH 1 0
BBX 1 1 0 0
BITMAP
00
ENDCHAR
STARTCHAR 0393
ENCODING 915
SWIDTH 36 0
DWIDTH 1 0
BBX 1 1 0 0
BITMAP
00
ENDCHAR
STARTCHAR 0394
ENCODING 916
SWIDTH 36 0
DWIDTH 1 0
BBX 1 1 0 0
BITMAP
00
ENDCHAR
STARTCHAR 0395
ENCODING 917
SWIDTH 36 0
DWIDTH 1 0
BBX 1 1 0 0
BITMAP
00
ENDCHAR
STARTCHAR 0396
ENCODING 918
SWIDTH 36 0
DWIDTH 1 0
BBX 1 1 0 0
BITMAP
00
ENDCHAR
STARTCHAR 0397
ENCODING 919
SWIDTH 36 0
DWIDTH 1 0
BBX 1 1 0 0
BITMAP
00
ENDCHAR
STARTCHAR 0398
ENCODING 920
SWIDTH 36 0
DWIDTH 1 0
BBX 1 1 0 0
BITMAP
00
ENDCHAR
STARTCHAR 0399
ENCODING 921
SWIDTH 36 0
DWIDTH 1 0
BBX 1 1 0 0
BITMAP
00
ENDCHAR
STARTCHAR 039A
ENCODING 922
SWIDTH 36 0
DWIDTH 1 0
BBX 1 1 0 0
BITMAP
00
ENDCHAR
STARTCHAR 039B
ENCODING 923
SWIDTH 36 0
DWIDTH 1 0
BBX 1 1 0 0
BITMAP
00
ENDCHAR
STARTCHAR 039C
ENCODING 924
SWIDTH 36 0
DWIDTH 1 0
BBX 1 1 0 0
BITMAP
00
ENDCHAR
STARTCHAR 039D
ENCODING 925
SWIDTH 36 0
DWIDTH 1 0
BBX 1 1 0 0
BITMAP
00
ENDCHAR
STARTCHAR 039E
ENCODING 926
SWIDTH 36 0
DWIDTH 1 0
BBX 1 1 0 0
BITMAP
00
ENDCHAR
STARTCHAR 039F
ENCODING 927
SWIDTH 36 0
DWIDTH 1 0
BBX 1 1 0 0
BITMAP
00
ENDCHAR
STARTCHAR 03A0
ENCODING 928
SWIDTH 36 0
DWIDTH 1 0
BBX 1 1 0 0
BITMAP
00
ENDCHAR
STARTCHAR 03A1
ENCODING 929
SWIDTH 36 0
DWIDTH 1 0
BBX 1 1 0 0
BITMAP
00
ENDCHAR
STARTCHAR 03A3
ENCODING 931
SWIDTH 36 0
DWIDTH 1 0
BBX 1 1 0 0
BITMAP
00
ENDCHAR
STARTCHAR 03A4
ENCODING 932
SWIDTH 36 0
DWIDTH 1 0
BBX 1 1 0 0
BITMAP
00
ENDCHAR
STARTCHAR 03A5
ENCODING 933
SWIDTH 36 0
DWIDTH 1 0
BBX 1 1 0 0
BITMAP
00
ENDCHAR
STARTCHAR 03A6
ENCODING 934
SWIDTH 36 0
DWIDTH 1 0
BBX 1 1 0 0
BITMAP
00
ENDCHAR
STARTCHAR 03A7
ENCODING 935
SWIDTH 36 0
DWIDTH 1 0
BBX 1 1 0 0
BITMAP
00
ENDCHAR
STARTCHAR 03A8
ENCODING 936
SWIDTH 36 0
DWIDTH 1 0
BBX 1 1 0 0
BITMAP
00
ENDCHAR
STARTCHAR 03A9
ENCODING 937
SWIDTH 36 0
DWIDTH 1 0
BBX 1 1 0 0
BITMAP
00
ENDCHAR
STARTCHAR 03AA
ENCODING 938
SWIDTH 36 0
DWIDTH 1 0
BBX 1 1 0 0
BITMAP
00
ENDCHAR
STARTCHAR 03AB
ENCODING 939
SWIDTH 36 0
DWIDTH 1 0
BBX 1 1 0 0
BITMAP
00
ENDCHAR
STARTCHAR 03AC
ENCODING 940
SWIDTH 36 0
DWIDTH 1 0
BBX 1 1 0 0
BITMAP
00
ENDCHAR
STARTCHAR 03AD
ENCODING 941
SWIDTH 36 0
DWIDTH 1 0
BBX 1 1 0 0
BITMAP
00
ENDCHAR
STARTCHAR 03AE
ENCODING 942
SWIDTH 36 0
DWIDTH 1 0
BBX 1 1 0 0
BITMAP
00
ENDCHAR
STARTCHAR 03AF
ENCODING 943
SWIDTH 36 0
DWIDTH 1 0
BBX 1 1 0 0
BITMAP
00
ENDCHAR
STARTCHAR 03B0
ENCODING 944
SWIDTH 36 0
DWIDTH 1 0
BBX 1 1 0 0
BITMAP
00
ENDCHAR
STARTCHAR 03B1
ENCODING 945
SWIDTH 36 0
DWIDTH 1 0
BBX 1 1 0 0
BITMAP
00
ENDCHAR
STARTCHAR 03B2
ENCODING 946
SWIDTH 36 0
DWIDTH 1 0
BBX 1 1 0 0
BITMAP
00
ENDCHAR
STARTCHAR 03B3
ENCODING 947
SWIDTH 36 0
DWIDTH 1 0
BBX 1 1 0 0
BITMAP
00
ENDCHAR
STARTCHAR 03B4
ENCODING 948
SWIDTH 36 0
DWIDTH 1 0
BBX 1 1 0 0
BITMAP
00
ENDCHAR
STARTCHAR 03B5
ENCODING 949
SWIDTH 36 0
DWIDTH 1 0
BBX 1 1 0 0
BITMAP
00
ENDCHAR
STARTCHAR 03B6
ENCODING 950
SWIDTH 36 0
DWIDTH 1 0
BBX 1 1 0 0
BITMAP
00
ENDCHAR
STARTCHAR 03B7
ENCODING 951
SWIDTH 36 0
DWIDTH 1 0
BBX 1 1 0 0
BITMAP
00
ENDCHAR
STARTCHAR 03B8
ENCODING 952
SWIDTH 36 0
DWIDTH 1 0
BBX 1 1 0 0
BITMAP
00
ENDCHAR
STARTCHAR 03B9
ENCODING 953
SWIDTH 36 0
DWIDTH 1 0
BBX 1 1 0 0
BITMAP
00
ENDCHAR
STARTCHAR 03BA
ENCODING 954
SWIDTH 36 0
DWIDTH 1 0
BBX 1 1 0 0
BITMAP
00
ENDCHAR
STARTCHAR 03BB
ENCODING 955
SWIDTH 36 0
DWIDTH 1 0
BBX 1 1 0 0
BITMAP
00
ENDCHAR
STARTCHAR 03BC
ENCODING 956
SWIDTH 36 0
DWIDTH 1 0
BBX 1 1 0 0
BITMAP
00
ENDCHAR
STARTCHAR 03BD
ENCODING 957
SWIDTH 36 0
DWIDTH 1 0
BBX 1 1 0 0
BITMAP
00
ENDCHAR
STARTCHAR 03BE
ENCODING 958
SWIDTH 36 0
DWIDTH 1 0
BBX 1 1 0 0
BITMAP
00
ENDCHAR
STARTCHAR 03BF
ENCODING 959
SWIDTH 36 0
DWIDTH 1 0
BBX 1 1 0 0
BITMAP
00
ENDCHAR
STARTCHAR 03C0
ENCODING 960
SWIDTH 36 0
DWIDTH 1 0
BBX 1 1 0 0
BITMAP
00
ENDCHAR
STARTCHAR 03C1
ENCODING 961
SWIDTH 36 0
DWIDTH 1 0
BBX 1 1 0 0
BITMAP
00
ENDCHAR
STARTCHAR 03C2
ENCODING 962
SWIDTH 36 0
DWIDTH 1 0
BBX 1 1 0 0
BITMAP
00
ENDCHAR
STARTCHAR 03C3
ENCODING 963
SWIDTH 36 0
DWIDTH 1 0
BBX 1 1 0 0
BITMAP
00
ENDCHAR
STARTCHAR 03C4
ENCODING 964
SWIDTH 36 0
DWIDTH 1 0
BBX 1 1 0 0
BITMAP
00
ENDCHAR
STARTCHAR 03C5
ENCODING 965
SWIDTH 36 0
DWIDTH 1 0
BBX 1 1 0 0
BITMAP
00
ENDCHAR
STARTCHAR 03C6
ENCODING 966
SWIDTH 36 0
DWIDTH 1 0
BBX 1 1 0 0
BITMAP
00
ENDCHAR
STARTCHAR 03C7
ENCODING 967
SWIDTH 36 0
DWIDTH 1 0
BBX 1 1 0 0
BITMAP
00
ENDCHAR
STARTCHAR 03C8
ENCODING 968
SWIDTH 36 0
DWIDTH 1 0
BBX 1 1 0 0
BITMAP
00
ENDCHAR
STARTCHAR 03C9
ENCODING 969
SWIDTH 36 0
DWIDTH 1 0
BBX 1 1 0 0
BITMAP
00
ENDCHAR
STARTCHAR 03CA
ENCODING 970
SWIDTH 36 0
DWIDTH 1 0
BBX 1 1 0 0
BITMAP
00
ENDCHAR
STARTCHAR 03CB
ENCODING 971
SWIDTH 36 0
DWIDTH 1 0
BBX 1 1 0 0
BITMAP
00
ENDCHAR
STARTCHAR 03CC
ENCODING 972
SWIDTH 36 0
DWIDTH 1 0
BBX 1 1 0 0
BITMAP
00
ENDCHAR
STARTCHAR 03CD
ENCODING 973
SWIDTH 36 0
DWIDTH 1 0
BBX 1 1 0 0
BITMAP
00
ENDCHAR
STARTCHAR 03CE
ENCODING 974
SWIDTH 36 0
DWIDTH 1 0
BBX 1 1 0 0
BITMAP
00
ENDCHAR
STARTCHAR 0401
ENCODING 1025
SWIDTH 36 0
DWIDTH 1 0
BBX 1 1 0 0
BITMAP
00
ENDCHAR
STARTCHAR 0402
ENCODING 1026
SWIDTH 36 0
DWIDTH 1 0
BBX 1 1 0 0
BITMAP
00
ENDCHAR
STARTCHAR 0403
ENCODING 1027
SWIDTH 36 0
DWIDTH 1 0
BBX 1 1 0 0
BITMAP
00
ENDCHAR
STARTCHAR 0404
ENCODING 1028
SWIDTH 36 0
DWIDTH 1 0
BBX 1 1 0 0
BITMAP
00
ENDCHAR
STARTCHAR 0405
ENCODING 1029
SWIDTH 36 0
DWIDTH 1 0
BBX 1 1 0 0
BITMAP
00
ENDCHAR
STARTCHAR 0406
ENCODING 1030
SWIDTH 36 0
DWIDTH 1 0
BBX 1 1 0 0
BITMAP
00
ENDCHAR
STARTCHAR 0407
ENCODING 1031
SWIDTH 36 0
DWIDTH 1 0
BBX 1 1 0 0
BITMAP
00
ENDCHAR
STARTCHAR 0408
ENCODING 1032
SWIDTH 36 0
DWIDTH 1 0
BBX 1 1 0 0
BITMAP
00
ENDCHAR
STARTCHAR 0409
ENCODING 1033
SWIDTH 36 0
DWIDTH 1 0
BBX 1 1 0 0
BITMAP
00
ENDCHAR
STARTCHAR 040A
ENCODING 1034
SWIDTH 36 0
DWIDTH 1 0
BBX 1 1 0 0
BITMAP
00
ENDCHAR
STARTCHAR 040B
ENCODING 1035
SWIDTH 36 0
DWIDTH 1 0
BBX 1 1 0 0
BITMAP
00
ENDCHAR
STARTCHAR 040C
ENCODING 1036
SWIDTH 36 0
DWIDTH 1 0
BBX 1 1 0 0
BITMAP
00
ENDCHAR
STARTCHAR 040E
ENCODING 1038
SWIDTH 36 0
DWIDTH 1 0
BBX 1 1 0 0
BITMAP
00
ENDCHAR
STARTCHAR 040F
ENCODING 1039
SWIDTH 36 0
DWIDTH 1 0
BBX 1 1 0 0
BITMAP
00
ENDCHAR
STARTCHAR 0410
ENCODING 1040
SWIDTH 36 0
DWIDTH 1 0
BBX 1 1 0 0
BITMAP
00
ENDCHAR
STARTCHAR 0411
ENCODING 1041
SWIDTH 36 0
DWIDTH 1 0
BBX 1 1 0 0
BITMAP
00
ENDCHAR
STARTCHAR 0412
ENCODING 1042
SWIDTH 36 0
DWIDTH 1 0
BBX 1 1 0 0
BITMAP
00
ENDCHAR
STARTCHAR 0413
ENCODING 1043
SWIDTH 36 0
DWIDTH 1 0
BBX 1 1 0 0
BITMAP
00
ENDCHAR
STARTCHAR 0414
ENCODING 1044
SWIDTH 36 0
DWIDTH 1 0
BBX 1 1 0 0
BITMAP
00
ENDCHAR
STARTCHAR 0415
ENCODING 1045
SWIDTH 36 0
DWIDTH 1 0
BBX 1 1 0 0
BITMAP
00
ENDCHAR
STARTCHAR 0416
ENCODING 1046
SWIDTH 36 0
DWIDTH 1 0
BBX 1 1 0 0
BITMAP
00
ENDCHAR
STARTCHAR 0417
ENCODING 1047
SWIDTH 36 0
DWIDTH 1 0
BBX 1 1 0 0
BITMAP
00
ENDCHAR
STARTCHAR 0418
ENCODING 1048
SWIDTH 36 0
DWIDTH 1 0
BBX 1 1 0 0
BITMAP
00
ENDCHAR
STARTCHAR 0419
ENCODING 1049
SWIDTH 36 0
DWIDTH 1 0
BBX 1 1 0 0
BITMAP
00
ENDCHAR
STARTCHAR 041A
ENCODING 1050
SWIDTH 36 0
DWIDTH 1 0
BBX 1 1 0 0
BITMAP
00
ENDCHAR
STARTCHAR 041B
ENCODING 1051
SWIDTH 36 0
DWIDTH 1 0
BBX 1 1 0 0
BITMAP
00
ENDCHAR
STARTCHAR 041C
ENCODING 1052
SWIDTH 36 0
DWIDTH 1 0
BBX 1 1 0 0
BITMAP
00
ENDCHAR
STARTCHAR 041D
ENCODING 1053
SWIDTH 36 0
DWIDTH 1 0
BBX 1 1 0 0
BITMAP
00
ENDCHAR
STARTCHAR 041E
ENCODING 1054
SWIDTH 36 0
DWIDTH 1 0
BBX 1 1 0 0
BITMAP
00
ENDCHAR
STARTCHAR 041F
ENCODING 1055
SWIDTH 36 0
DWIDTH 1 0
BBX 1 1 0 0
BITMAP
00
ENDCHAR
STARTCHAR 0420
ENCODING 1056
SWIDTH 36 0
DWIDTH 1 0
BBX 1 1 0 0
BITMAP
00
ENDCHAR
STARTCHAR 0421
ENCODING 1057
SWIDTH 36 0
DWIDTH 1 0
BBX 1 1 0 0
BITMAP
00
ENDCHAR
STARTCHAR 0422
ENCODING 1058
SWIDTH 36 0
DWIDTH 1 0
BBX 1 1 0 0
BITMAP
00
ENDCHAR
STARTCHAR 0423
ENCODING 1059
SWIDTH 36 0
DWIDTH 1 0
BBX 1 1 0 0
BITMAP
00
ENDCHAR
STARTCHAR 0424
ENCODING 1060
SWIDTH 36 0
DWIDTH 1 0
BBX 1 1 0 0
BITMAP
00
ENDCHAR
STARTCHAR 0425
ENCODING 1061
SWIDTH 36 0
DWIDTH 1 0
BBX 1 1 0 0
BITMAP
00
ENDCHAR
STARTCHAR 0426
ENCODING 1062
SWIDTH 36 0
DWIDTH 1 0
BBX 1 1 0 0
BITMAP
00
ENDCHAR
STARTCHAR 0427
ENCODING 1063
SWIDTH 36 0
DWIDTH 1 0
BBX 1 1 0 0
BITMAP
00
ENDCHAR
STARTCHAR 0428
ENCODING 1064
SWIDTH 36 0
DWIDTH 1 0
BBX 1 1 0 0
BITMAP
00
ENDCHAR
STARTCHAR 0429
ENCODING 1065
SWIDTH 36 0
DWIDTH 1 0
BBX 1 1 0 0
BITMAP
00
ENDCHAR
STARTCHAR 042A
ENCODING 1066
SWIDTH 36 0
DWIDTH 1 0
BBX 1 1 0 0
BITMAP
00
ENDCHAR
STARTCHAR 042B
ENCODING 1067
SWIDTH 36 0
DWIDTH 1 0
BBX 1 1 0 0
BITMAP
00
ENDCHAR
STARTCHAR 042C
ENCODING 1068
SWIDTH 36 0
DWIDTH 1 0
BBX 1 1 0 0
BITMAP
00
ENDCHAR
STARTCHAR 042D
ENCODING 1069
SWIDTH 36 0
DWIDTH 1 0
BBX 1 1 0 0
BITMAP
00
ENDCHAR
STARTCHAR 042E
ENCODING 1070
SWIDTH 36 0
DWIDTH 1 0
BBX 1 1 0 0
BITMAP
00
ENDCHAR
STARTCHAR 042F
ENCODING 1071
SWIDTH 36 0
DWIDTH 1 0
BBX 1 1 0 0
BITMAP
00
ENDCHAR
STARTCHAR 0430
ENCODING 1072
SWIDTH 36 0
DWIDTH 1 0
BBX 1 1 0 0
BITMAP
00
ENDCHAR
STARTCHAR 0431
ENCODING 1073
SWIDTH 36 0
DWIDTH 1 0
BBX 1 1 0 0
BITMAP
00
ENDCHAR
STARTCHAR 0432
ENCODING 1074
SWIDTH 36 0
DWIDTH 1 0
BBX 1 1 0 0
BITMAP
00
ENDCHAR
STARTCHAR 0433
ENCODING 1075
SWIDTH 36 0
DWIDTH 1 0
BBX 1 1 0 0
BITMAP
00
ENDCHAR
STARTCHAR 0434
ENCODING 1076
SWIDTH 36 0
DWIDTH 1 0
BBX 1 1 0 0
BITMAP
00
ENDCHAR
STARTCHAR 0435
ENCODING 1077
SWIDTH 36 0
DWIDTH 1 0
BBX 1 1 0 0
BITMAP
00
ENDCHAR
STARTCHAR 0436
ENCODING 1078
SWIDTH 36 0
DWIDTH 1 0
BBX 1 1 0 0
BITMAP
00
ENDCHAR
STARTCHAR 0437
ENCODING 1079
SWIDTH 36 0
DWIDTH 1 0
BBX 1 1 0 0
BITMAP
00
ENDCHAR
STARTCHAR 0438
ENCODING 1080
SWIDTH 36 0
DWIDTH 1 0
BBX 1 1 0 0
BITMAP
00
ENDCHAR
STARTCHAR 0439
ENCODING 1081
SWIDTH 36 0
DWIDTH 1 0
BBX 1 1 0 0
BITMAP
00
ENDCHAR
STARTCHAR 043A
ENCODING 1082
SWIDTH 36 0
DWIDTH 1 0
BBX 1 1 0 0
BITMAP
00
ENDCHAR
STARTCHAR 043B
ENCODING 1083
SWIDTH 36 0
DWIDTH 1 0
BBX 1 1 0 0
BITMAP
00
ENDCHAR
STARTCHAR 043C
ENCODING 1084
SWIDTH 36 0
DWIDTH 1 0
BBX 1 1 0 0
BITMAP
00
ENDCHAR
STARTCHAR 043D
ENCODING 1085
SWIDTH 36 0
DWIDTH 1 0
BBX 1 1 0 0
BITMAP
00
ENDCHAR
STARTCHAR 043E
ENCODING 1086
SWIDTH 36 0
DWIDTH 1 0
BBX 1 1 0 0
BITMAP
00
ENDCHAR
STARTCHAR 043F
ENCODING 1087
SWIDTH 36 0
DWIDTH 1 0
BBX 1 1 0 0
BITMAP
00
ENDCHAR
STARTCHAR 0440
ENCODING 1088
SWIDTH 36 0
DWIDTH 1 0
BBX 1 1 0 0
BITMAP
00
ENDCHAR
STARTCHAR 0441
ENCODING 1089
SWIDTH 36 0
DWIDTH 1 0
BBX 1 1 0 0
BITMAP
00
ENDCHAR
STARTCHAR 0442
ENCODING 1090
SWIDTH 36 0
DWIDTH 1 0
BBX 1 1 0 0
BITMAP
00
ENDCHAR
STARTCHAR 0443
ENCODING 1091
SWIDTH 36 0
DWIDTH 1 0
BBX 1 1 0 0
BITMAP
00
ENDCHAR
STARTCHAR 0444
ENCODING 1092
SWIDTH 36 0
DWIDTH 1 0
BBX 1 1 0 0
BITMAP
00
ENDCHAR
STARTCHAR 0445
ENCODING 1093
SWIDTH 36 0
DWIDTH 1 0
BBX 1 1 0 0
BITMAP
00
ENDCHAR
STARTCHAR 0446
ENCODING 1094
SWIDTH 36 0
DWIDTH 1 0
BBX 1 1 0 0
BITMAP
00
ENDCHAR
STARTCHAR 0447
ENCODING 1095
SWIDTH 36 0
DWIDTH 1 0
BBX 1 1 0 0
BITMAP
00
ENDCHAR
STARTCHAR 0448
ENCODING 1096
SWIDTH 36 0
DWIDTH 1 0
BBX 1 1 0 0
BITMAP
00
ENDCHAR
STARTCHAR 0449
ENCODING 1097
SWIDTH 36 0
DWIDTH 1 0
BBX 1 1 0 0
BITMAP
00
ENDCHAR
STARTCHAR 044A
ENCODING 1098
SWIDTH 36 0
DWIDTH 1 0
BBX 1 1 0 0
BITMAP
00
ENDCHAR
STARTCHAR 044B
ENCODING 1099
SWIDTH 36 0
DWIDTH 1 0
BBX 1 1 0 0
BITMAP
00
ENDCHAR
STARTCHAR 044C
ENCODING 1100
SWIDTH 36 0
DWIDTH 1 0
BBX 1 1 0 0
BITMAP
00
ENDCHAR
STARTCHAR 044D
ENCODING 1101
SWIDTH 36 0
DWIDTH 1 0
BBX 1 1 0 0
BITMAP
00
ENDCHAR
STARTCHAR 044E
ENCODING 1102
SWIDTH 36 0
DWIDTH 1 0
BBX 1 1 0 0
BITMAP
00
ENDCHAR
STARTCHAR 044F
ENCODING 1103
SWIDTH 36 0
DWIDTH 1 0
BBX 1 1 0 0
BITMAP
00
ENDCHAR
STARTCHAR 0451
ENCODING 1105
SWIDTH 36 0
DWIDTH 1 0
BBX 1 1 0 0
BITMAP
00
ENDCHAR
STARTCHAR 0452
ENCODING 1106
SWIDTH 36 0
DWIDTH 1 0
BBX 1 1 0 0
BITMAP
00
ENDCHAR
STARTCHAR 0453
ENCODING 1107
SWIDTH 36 0
DWIDTH 1 0
BBX 1 1 0 0
BITMAP
00
ENDCHAR
STARTCHAR 0454
ENCODING 1108
SWIDTH 36 0
DWIDTH 1 0
BBX 1 1 0 0
BITMAP
00
ENDCHAR
STARTCHAR 0455
ENCODING 1109
SWIDTH 36 0
DWIDTH 1 0
BBX 1 1 0 0
BITMAP
00
ENDCHAR
STARTCHAR 0456
ENCODING 1110
SWIDTH 36 0
DWIDTH 1 0
BBX 1 1 0 0
BITMAP
00
ENDCHAR
STARTCHAR 0457
ENCODING 1111
SWIDTH 36 0
DWIDTH 1 0
BBX 1 1 0 0
BITMAP
00
ENDCHAR
STARTCHAR 0458
ENCODING 1112
SWIDTH 36 0
DWIDTH 1 0
BBX 1 1 0 0
BITMAP
00
ENDCHAR
STARTCHAR 0459
ENCODING 1113
SWIDTH 36 0
DWIDTH 1 0
BBX 1 1 0 0
BITMAP
00
ENDCHAR
STARTCHAR 045A
ENCODING 1114
SWIDTH 36 0
DWIDTH 1 0
BBX 1 1 0 0
BITMAP
00
ENDCHAR
STARTCHAR 045B
ENCODING 1115
SWIDTH 36 0
DWIDTH 1 0
BBX 1 1 0 0
BITMAP
00
ENDCHAR
STARTCHAR 045C
ENCODING 1116
SWIDTH 36 0
DWIDTH 1 0
BBX 1 1 0 0
BITMAP
00
ENDCHAR
STARTCHAR 045E
ENCODING 1118
SWIDTH 36 0
DWIDTH 1 0
BBX 1 1 0 0
BITMAP
00
ENDCHAR
STARTCHAR 045F
ENCODING 1119
SWIDTH 36 0
DWIDTH 1 0
BBX 1 1 0 0
BITMAP
00
ENDCHAR
STARTCHAR 0490
ENCODING 1168
SWIDTH 36 0
DWIDTH 1 0
BBX 1 1 0 0
BITMAP
00
ENDCHAR
STARTCHAR 0491
ENCODING 1169
SWIDTH 36 0
DWIDTH 1 0
BBX 1 1 0 0
BITMAP
00
ENDCHAR
STARTCHAR 1E80
ENCODING 7808
SWIDTH 36 0
DWIDTH 1 0
BBX 1 1 0 0
BITMAP
00
ENDCHAR
STARTCHAR 1E81
ENCODING 7809
SWIDTH 36 0
DWIDTH 1 0
BBX 1 1 0 0
BITMAP
00
ENDCHAR
STARTCHAR 1E82
ENCODING 7810
SWIDTH 36 0
DWIDTH 1 0
BBX 1 1 0 0
BITMAP
00
ENDCHAR
STARTCHAR 1E83
ENCODING 7811
SWIDTH 36 0
DWIDTH 1 0
BBX 1 1 0 0
BITMAP
00
ENDCHAR
STARTCHAR 1E84
ENCODING 7812
SWIDTH 36 0
DWIDTH 1 0
BBX 1 1 0 0
BITMAP
00
ENDCHAR
STARTCHAR 1E85
ENCODING 7813
SWIDTH 36 0
DWIDTH 1 0
BBX 1 1 0 0
BITMAP
00
ENDCHAR
STARTCHAR 1EF2
ENCODING 7922
SWIDTH 36 0
DWIDTH 1 0
BBX 1 1 0 0
BITMAP
00
ENDCHAR
STARTCHAR 1EF3
ENCODING 7923
SWIDTH 36 0
DWIDTH 1 0
BBX 1 1 0 0
BITMAP
00
ENDCHAR
STARTCHAR 2013
ENCODING 8211
SWIDTH 36 0
DWIDTH 1 0
BBX 1 1 0 0
BITMAP
00
ENDCHAR
STARTCHAR 2014
ENCODING 8212
SWIDTH 36 0
DWIDTH 1 0
BBX 1 1 0 0
BITMAP
00
ENDCHAR
STARTCHAR 2015
ENCODING 8213
SWIDTH 36 0
DWIDTH 1 0
BBX 1 1 0 0
BITMAP
00
ENDCHAR
STARTCHAR 2017
ENCODING 8215
SWIDTH 36 0
DWIDTH 1 0
BBX 1 1 0 0
BITMAP
00
ENDCHAR
STARTCHAR 2018
ENCODING 8216
SWIDTH 36 0
DWIDTH 1 0
BBX 1 1 0 0
BITMAP
00
ENDCHAR
STARTCHAR 2019
ENCODING 8217
SWIDTH 36 0
DWIDTH 1 0
BBX 1 1 0 0
BITMAP
00
ENDCHAR
STARTCHAR 201A
ENCODING 8218
SWIDTH 36 0
DWIDTH 1 0
BBX 1 1 0 0
BITMAP
00
ENDCHAR
STARTCHAR 201B
ENCODING 8219
SWIDTH 36 0
DWIDTH 1 0
BBX 1 1 0 0
BITMAP
00
ENDCHAR
STARTCHAR 201C
ENCODING 8220
SWIDTH 36 0
DWIDTH 1 0
BBX 1 1 0 0
BITMAP
00
ENDCHAR
STARTCHAR 201D
ENCODING 8221
SWIDTH 36 0
DWIDTH 1 0
BBX 1 1 0 0
BITMAP
00
ENDCHAR
STARTCHAR 201E
ENCODING 8222
SWIDTH 36 0
DWIDTH 1 0
BBX 1 1 0 0
BITMAP
00
ENDCHAR
STARTCHAR 2020
ENCODING 8224
SWIDTH 36 0
DWIDTH 1 0
BBX 1 1 0 0
BITMAP
00
ENDCHAR
STARTCHAR 2021
ENCODING 8225
SWIDTH 36 0
DWIDTH 1 0
BBX 1 1 0 0
BITMAP
00
ENDCHAR
STARTCHAR 2022
ENCODING 8226
SWIDTH 36 0
DWIDTH 1 0
BBX 1 1 0 0
BITMAP
00
ENDCHAR
STARTCHAR 2026
ENCODING 8230
SWIDTH 36 0
DWIDTH 1 0
BBX 1 1 0 0
BITMAP
00
ENDCHAR
STARTCHAR 2030
ENCODING 8240
SWIDTH 36 0
DWIDTH 1 0
BBX 1 1 0 0
BITMAP
00
ENDCHAR
STARTCHAR 2032
ENCODING 8242
SWIDTH 36 0
DWIDTH 1 0
BBX 1 1 0 0
BITMAP
00
ENDCHAR
STARTCHAR 2033
ENCODING 8243
SWIDTH 36 0
DWIDTH 1 0
BBX 1 1 0 0
BITMAP
00
ENDCHAR
STARTCHAR 2039
ENCODING 8249
SWIDTH 36 0
DWIDTH 1 0
BBX 1 1 0 0
BITMAP
00
ENDCHAR
STARTCHAR 203A
ENCODING 8250
SWIDTH 36 0
DWIDTH 1 0
BBX 1 1 0 0
BITMAP
00
ENDCHAR
STARTCHAR 203C
ENCODING 8252
SWIDTH 36 0
DWIDTH 1 0
BBX 1 1 0 0
BITMAP
00
ENDCHAR
STARTCHAR 203E
ENCODING 8254
SWIDTH 36 0
DWIDTH 1 0
BBX 1 1 0 0
BITMAP
00
ENDCHAR
STARTCHAR 2044
ENCODING 8260
SWIDTH 36 0
DWIDTH 1 0
BBX 1 1 0 0
BITMAP
00
ENDCHAR
STARTCHAR 207F
ENCODING 8319
SWIDTH 36 0
DWIDTH 1 0
BBX 1 1 0 0
BITMAP
00
ENDCHAR
STARTCHAR 20A3
ENCODING 8355
SWIDTH 36 0
DWIDTH 1 0
BBX 1 1 0 0
BITMAP
00
ENDCHAR
STARTCHAR 20A4
ENCODING 8356
SWIDTH 36 0
DWIDTH 1 0
BBX 1 1 0 0
BITMAP
00
ENDCHAR
STARTCHAR 20A7
ENCODING 8359
SWIDTH 36 0
DWIDTH 1 0
BBX 1 1 0 0
BITMAP
00
ENDCHAR
STARTCHAR 20AC
ENCODING 8364
SWIDTH 36 0
DWIDTH 1 0
BBX 1 1 0 0
BITMAP
00
ENDCHAR
STARTCHAR 2105
ENCODING 8453
SWIDTH 36 0
DWIDTH 1 0
BBX 1 1 0 0
BITMAP
00
ENDCHAR
STARTCHAR 2113
ENCODING 8467
SWIDTH 36 0
DWIDTH 1 0
BBX 1 1 0 0
BITMAP
00
ENDCHAR
STARTCHAR 2116
ENCODING 8470
SWIDTH 36 0
DWIDTH 1 0
BBX 1 1 0 0
BITMAP
00
ENDCHAR
STARTCHAR 2122
ENCODING 8482
SWIDTH 36 0
DWIDTH 1 0
BBX 1 1 0 0
BITMAP
00
ENDCHAR
STARTCHAR 2126
ENCODING 8486
SWIDTH 36 0
DWIDTH 1 0
BBX 1 1 0 0
BITMAP
00
ENDCHAR
STARTCHAR 212E
ENCODING 8494
SWIDTH 36 0
DWIDTH 1 0
BBX 1 1 0 0
BITMAP
00
ENDCHAR
STARTCHAR 215B
ENCODING 8539
SWIDTH 36 0
DWIDTH 1 0
BBX 1 1 0 0
BITMAP
00
ENDCHAR
STARTCHAR 215C
ENCODING 8540
SWIDTH 36 0
DWIDTH 1 0
BBX 1 1 0 0
BITMAP
00
ENDCHAR
STARTCHAR 215D
ENCODING 8541
SWIDTH 36 0
DWIDTH 1 0
BBX 1 1 0 0
BITMAP
00
ENDCHAR
STARTCHAR 215E
ENCODING 8542
SWIDTH 36 0
DWIDTH 1 0
BBX 1 1 0 0
BITMAP
00
ENDCHAR
STARTCHAR 2190
ENCODING 8592
SWIDTH 36 0
DWIDTH 1 0
BBX 1 1 0 0
BITMAP
00
ENDCHAR
STARTCHAR 2191
ENCODING 8593
SWIDTH 36 0
DWIDTH 1 0
BBX 1 1 0 0
BITMAP
00
ENDCHAR
STARTCHAR 2192
ENCODING 8594
SWIDTH 36 0
DWIDTH 1 0
BBX 1 1 0 0
BITMAP
00
ENDCHAR
STARTCHAR 2193
ENCODING 8595
SWIDTH 36 0
DWIDTH 1 0
BBX 1 1 0 0
BITMAP
00
ENDCHAR
STARTCHAR 2194
ENCODING 8596
SWIDTH 36 0
DWIDTH 1 0
BBX 1 1 0 0
BITMAP
00
ENDCHAR
STARTCHAR 2195
ENCODING 8597
SWIDTH 36 0
DWIDTH 1 0
BBX 1 1 0 0
BITMAP
00
ENDCHAR
STARTCHAR 21A8
ENCODING 8616
SWIDTH 36 0
DWIDTH 1 0
BBX 1 1 0 0
BITMAP
00
ENDCHAR
STARTCHAR 2202
ENCODING 8706
SWIDTH 36 0
DWIDTH 1 0
BBX 1 1 0 0
BITMAP
00
ENDCHAR
STARTCHAR 2206
ENCODING 8710
SWIDTH 36 0
DWIDTH 1 0
BBX 1 1 0 0
BITMAP
00
ENDCHAR
STARTCHAR 220F
ENCODING 8719
SWIDTH 36 0
DWIDTH 1 0
BBX 1 1 0 0
BITMAP
00
ENDCHAR
STARTCHAR 2211
ENCODING 8721
SWIDTH 36 0
DWIDTH 1 0
BBX 1 1 0 0
BITMAP
00
ENDCHAR
STARTCHAR 2212
ENCODING 8722
SWIDTH 36 0
DWIDTH 1 0
BBX 1 1 0 0
BITMAP
00
ENDCHAR
STARTCHAR 2215
ENCODING 8725
SWIDTH 36 0
DWIDTH 1 0
BBX 1 1 0 0
BITMAP
00
ENDCHAR
STARTCHAR 2219
ENCODING 8729
SWIDTH 36 0
DWIDTH 1 0
BBX 1 1 0 0
BITMAP
00
ENDCHAR
STARTCHAR 221A
ENCODING 8730
SWIDTH 36 0
DWIDTH 1 0
BBX 1 1 0 0
BITMAP
00
ENDCHAR
STARTCHAR 221E
ENCODING 8734
SWIDTH 36 0
DWIDTH 1 0
BBX 1 1 0 0
BITMAP
00
ENDCHAR
STARTCHAR 221F
ENCODING 8735
SWIDTH 36 0
DWIDTH 1 0
BBX 1 1 0 0
BITMAP
00
ENDCHAR
STARTCHAR 2229
ENCODING 8745
SWIDTH 36 0
DWIDTH 1 0
BBX 1 1 0 0
BITMAP
00
ENDCHAR
STARTCHAR 222B
ENCODING 8747
SWIDTH 36 0
DWIDTH 1 0
BBX 1 1 0 0
BITMAP
00
ENDCHAR
STARTCHAR 2248
ENCODING 8776
SWIDTH 36 0
DWIDTH 1 0
BBX 1 1 0 0
BITMAP
00
ENDCHAR
STARTCHAR 2260
ENCODING 8800
SWIDTH 36 0
DWIDTH 1 0
BBX 1 1 0 0
BITMAP
00
ENDCHAR
STARTCHAR 2261
ENCODING 8801
SWIDTH 36 0
DWIDTH 1 0
BBX 1 1 0 0
BITMAP
00
ENDCHAR
STARTCHAR 2264
ENCODING 8804
SWIDTH 36 0
DWIDTH 1 0
BBX 1 1 0 0
BITMAP
00
ENDCHAR
STARTCHAR 2265
ENCODING 8805
SWIDTH 36 0
DWIDTH 1 0
BBX 1 1 0 0
BITMAP
00
ENDCHAR
STARTCHAR 2302
ENCODING 8962
SWIDTH 36 0
DWIDTH 1 0
BBX 1 1 0 0
BITMAP
00
ENDCHAR
STARTCHAR 2310
ENCODING 8976
SWIDTH 36 0
DWIDTH 1 0
BBX 1 1 0 0
BITMAP
00
ENDCHAR
STARTCHAR 2320
ENCODING 8992
SWIDTH 36 0
DWIDTH 1 0
BBX 1 1 0 0
BITMAP
00
ENDCHAR
STARTCHAR 2321
ENCODING 8993
SWIDTH 36 0
DWIDTH 1 0
BBX 1 1 0 0
BITMAP
00
ENDCHAR
STARTCHAR 2500
ENCODING 9472
SWIDTH 36 0
DWIDTH 1 0
BBX 1 1 0 0
BITMAP
00
ENDCHAR
STARTCHAR 2502
ENCODING 9474
SWIDTH 36 0
DWIDTH 1 0
BBX 1 1 0 0
BITMAP
00
ENDCHAR
STARTCHAR 250C
ENCODING 9484
SWIDTH 36 0
DWIDTH 1 0
BBX 1 1 0 0
BITMAP
00
ENDCHAR
STARTCHAR 2510
ENCODING 9488
SWIDTH 36 0
DWIDTH 1 0
BBX 1 1 0 0
BITMAP
00
ENDCHAR
STARTCHAR 2514
ENCODING 9492
SWIDTH 36 0
DWIDTH 1 0
BBX 1 1 0 0
BITMAP
00
ENDCHAR
STARTCHAR 2518
ENCODING 9496
SWIDTH 36 0
DWIDTH 1 0
BBX 1 1 0 0
BITMAP
00
ENDCHAR
STARTCHAR 251C
ENCODING 9500
SWIDTH 36 0
DWIDTH 1 0
BBX 1 1 0 0
BITMAP
00
ENDCHAR
STARTCHAR 2524
ENCODING 9508
SWIDTH 36 0
DWIDTH 1 0
BBX 1 1 0 0
BITMAP
00
ENDCHAR
STARTCHAR 252C
ENCODING 9516
SWIDTH 36 0
DWIDTH 1 0
BBX 1 1 0 0
BITMAP
00
ENDCHAR
STARTCHAR 2534
ENCODING 9524
SWIDTH 36 0
DWIDTH 1 0
BBX 1 1 0 0
BITMAP
00
ENDCHAR
STARTCHAR 253C
ENCODING 9532
SWIDTH 36 0
DWIDTH 1 0
BBX 1 1 0 0
BITMAP
00
ENDCHAR
STARTCHAR 2550
ENCODING 9552
SWIDTH 36 0
DWIDTH 1 0
BBX 1 1 0 0
BITMAP
00
ENDCHAR
STARTCHAR 2551
ENCODING 9553
SWIDTH 36 0
DWIDTH 1 0
BBX 1 1 0 0
BITMAP
00
ENDCHAR
STARTCHAR 2552
ENCODING 9554
SWIDTH 36 0
DWIDTH 1 0
BBX 1 1 0 0
BITMAP
00
ENDCHAR
STARTCHAR 2553
ENCODING 9555
SWIDTH 36 0
DWIDTH 1 0
BBX 1 1 0 0
BITMAP
00
ENDCHAR
STARTCHAR 2554
ENCODING 9556
SWIDTH 36 0
DWIDTH 1 0
BBX 1 1 0 0
BITMAP
00
ENDCHAR
STARTCHAR 2555
ENCODING 9557
SWIDTH 36 0
DWIDTH 1 0
BBX 1 1 0 0
BITMAP
00
ENDCHAR
STARTCHAR 2556
ENCODING 9558
SWIDTH 36 0
DWIDTH 1 0
BBX 1 1 0 0
BITMAP
00
ENDCHAR
STARTCHAR 2557
ENCODING 9559
SWIDTH 36 0
DWIDTH 1 0
BBX 1 1 0 0
BITMAP
00
ENDCHAR
STARTCHAR 2558
ENCODING 9560
SWIDTH 36 0
DWIDTH 1 0
BBX 1 1 0 0
BITMAP
00
ENDCHAR
STARTCHAR 2559
ENCODING 9561
SWIDTH 36 0
DWIDTH 1 0
BBX 1 1 0 0
BITMAP
00
ENDCHAR
STARTCHAR 255A
ENCODING 9562
SWIDTH 36 0
DWIDTH 1 0
BBX 1 1 0 0
BITMAP
00
ENDCHAR
STARTCHAR 255B
ENCODING 9563
SWIDTH 36 0
DWIDTH 1 0
BBX 1 1 0 0
BITMAP
00
ENDCHAR
STARTCHAR 255C
ENCODING 9564
SWIDTH 36 0
DWIDTH 1 0
BBX 1 1 0 0
BITMAP
00
ENDCHAR
STARTCHAR 255D
ENCODING 9565
SWIDTH 36 0
DWIDTH 1 0
BBX 1 1 0 0
BITMAP
00
ENDCHAR
STARTCHAR 255E
ENCODING 9566
SWIDTH 36 0
DWIDTH 1 0
BBX 1 1 0 0
BITMAP
00
ENDCHAR
STARTCHAR 255F
ENCODING 9567
SWIDTH 36 0
DWIDTH 1 0
BBX 1 1 0 0
BITMAP
00
ENDCHAR
STARTCHAR 2560
ENCODING 9568
SWIDTH 36 0
DWIDTH 1 0
BBX 1 1 0 0
BITMAP
00
ENDCHAR
STARTCHAR 2561
ENCODING 9569
SWIDTH 36 0
DWIDTH 1 0
BBX 1 1 0 0
BITMAP
00
ENDCHAR
STARTCHAR 2562
ENCODING 9570
SWIDTH 36 0
DWIDTH 1 0
BBX 1 1 0 0
BITMAP
00
ENDCHAR
STARTCHAR 2563
ENCODING 9571
SWIDTH 36 0
DWIDTH 1 0
BBX 1 1 0 0
BITMAP
00
ENDCHAR
STARTCHAR 2564
ENCODING 9572
SWIDTH 36 0
DWIDTH 1 0
BBX 1 1 0 0
BITMAP
00
ENDCHAR
STARTCHAR 2565
ENCODING 9573
SWIDTH 36 0
DWIDTH 1 0
BBX 1 1 0 0
BITMAP
00
ENDCHAR
STARTCHAR 2566
ENCODING 9574
SWIDTH 36 0
DWIDTH 1 0
BBX 1 1 0 0
BITMAP
00
ENDCHAR
STARTCHAR 2567
ENCODING 9575
SWIDTH 36 0
DWIDTH 1 0
BBX 1 1 0 0
BITMAP
00
ENDCHAR
STARTCHAR 2568
ENCODING 9576
SWIDTH 36 0
DWIDTH 1 0
BBX 1 1 0 0
BITMAP
00
ENDCHAR
STARTCHAR 2569
ENCODING 9577
SWIDTH 36 0
DWIDTH 1 0
BBX 1 1 0 0
BITMAP
00
ENDCHAR
STARTCHAR 256A
ENCODING 9578
SWIDTH 36 0
DWIDTH 1 0
BBX 1 1 0 0
BITMAP
00
ENDCHAR
STARTCHAR 256B
ENCODING 9579
SWIDTH 36 0
DWIDTH 1 0
BBX 1 1 0 0
BITMAP
00
ENDCHAR
STARTCHAR 256C
ENCODING 9580
SWIDTH 36 0
DWIDTH 1 0
BBX 1 1 0 0
BITMAP
00
ENDCHAR
STARTCHAR 2580
ENCODING 9600
SWIDTH 36 0
DWIDTH 1 0
BBX 1 1 0 0
BITMAP
00
ENDCHAR
STARTCHAR 2584
ENCODING 9604
SWIDTH 36 0
DWIDTH 1 0
BBX 1 1 0 0
BITMAP
00
ENDCHAR
STARTCHAR 2588
ENCODING 9608
SWIDTH 36 0
DWIDTH 1 0
BBX 1 1 0 0
BITMAP
00
ENDCHAR
STARTCHAR 258C
ENCODING 9612
SWIDTH 36 0
DWIDTH 1 0
BBX 1 1 0 0
BITMAP
00
ENDCHAR
STARTCHAR 2590
ENCODING 9616
SWIDTH 36 0
DWIDTH 1 0
BBX 1 1 0 0
BITMAP
00
ENDCHAR
STARTCHAR 2591
ENCODING 9617
SWIDTH 36 0
DWIDTH 1 0
BBX 1 1 0 0
BITMAP
00
ENDCHAR
STARTCHAR 2592
ENCODING 9618
SWIDTH 36 0
DWIDTH 1 0
BBX 1 1 0 0
BITMAP
00
ENDCHAR
STARTCHAR 2593
ENCODING 9619
SWIDTH 36 0
DWIDTH 1 0
BBX 1 1 0 0
BITMAP
00
ENDCHAR
STARTCHAR 25A0
ENCODING 9632
SWIDTH 36 0
DWIDTH 1 0
BBX 1 1 0 0
BITMAP
00
ENDCHAR
STARTCHAR 25A1
ENCODING 9633
SWIDTH 36 0
DWIDTH 1 0
BBX 1 1 0 0
BITMAP
00
ENDCHAR
STARTCHAR 25AA
ENCODING 9642
SWIDTH 36 0
DWIDTH 1 0
BBX 1 1 0 0
BITMAP
00
ENDCHAR
STARTCHAR 25AB
ENCODING 9643
SWIDTH 36 0
DWIDTH 1 0
BBX 1 1 0 0
BITMAP
00
ENDCHAR
STARTCHAR 25AC
ENCODING 9644
SWIDTH 36 0
DWIDTH 1 0
BBX 1 1 0 0
BITMAP
00
ENDCHAR
STARTCHAR 25B2
ENCODING 9650
SWIDTH 36 0
DWIDTH 1 0
BBX 1 1 0 0
BITMAP
00
ENDCHAR
STARTCHAR 25BA
ENCODING 9658
SWIDTH 36 0
DWIDTH 1 0
BBX 1 1 0 0
BITMAP
00
ENDCHAR
STARTCHAR 25BC
ENCODING 9660
SWIDTH 36 0
DWIDTH 1 0
BBX 1 1 0 0
BITMAP
00
ENDCHAR
STARTCHAR 25C4
ENCODING 9668
SWIDTH 36 0
DWIDTH 1 0
BBX 1 1 0 0
BITMAP
00
ENDCHAR
STARTCHAR 25CA
ENCODING 9674
SWIDTH 36 0
DWIDTH 1 0
BBX 1 1 0 0
BITMAP
00
ENDCHAR
STARTCHAR 25CB
ENCODING 9675
SWIDTH 36 0
DWIDTH 1 0
BBX 1 1 0 0
BITMAP
00
ENDCHAR
STARTCHAR 25CF
ENCODING 9679
SWIDTH 36 0
DWIDTH 1 0
BBX 1 1 0 0
BITMAP
00
ENDCHAR
STARTCHAR 25D8
ENCODING 9688
SWIDTH 36 0
DWIDTH 1 0
BBX 1 1 0 0
BITMAP
00
ENDCHAR
STARTCHAR 25D9
ENCODING 9689
SWIDTH 36 0
DWIDTH 1 0
BBX 1 1 0 0
BITMAP
00
ENDCHAR
STARTCHAR 25E6
ENCODING 9702
SWIDTH 36 0
DWIDTH 1 0
BBX 1 1 0 0
BITMAP
00
ENDCHAR
STARTCHAR 263A
ENCODING 9786
SWIDTH 36 0
DWIDTH 1 0
BBX 1 1 0 0
BITMAP
00
ENDCHAR
STARTCHAR 263B
ENCODING 9787
SWIDTH 36 0
DWIDTH 1 0
BBX 1 1 0 0
BITMAP
00
ENDCHAR
STARTCHAR 263C
ENCODING 9788
SWIDTH 36 0
DWIDTH 1 0
BBX 1 1 0 0
BITMAP
00
ENDCHAR
STARTCHAR 2640
ENCODING 9792
SWIDTH 36 0
DWIDTH 1 0
BBX 1 1 0 0
BITMAP
00
ENDCHAR
STARTCHAR 2642
ENCODING 9794
SWIDTH 36 0
DWIDTH 1 0
BBX 1 1 0 0
BITMAP
00
ENDCHAR
STARTCHAR 2660
ENCODING 9824
SWIDTH 36 0
DWIDTH 1 0
BBX 1 1 0 0
BITMAP
00
ENDCHAR
STARTCHAR 2663
ENCODING 9827
SWIDTH 36 0
DWIDTH 1 0
BBX 1 1 0 0
BITMAP
00
ENDCHAR
STARTCHAR 2665
ENCODING 9829
SWIDTH 36 0
DWIDTH 1 0
BBX 1 1 0 0
BITMAP
00
ENDCHAR
STARTCHAR 2666
ENCODING 9830
SWIDTH 36 0
DWIDTH 1 0
BBX 1 1 0 0
BITMAP
00
ENDCHAR
STARTCHAR 266A
ENCODING 9834
SWIDTH 36 0
DWIDTH 1 0
BBX 1 1 0 0
BITMAP
00
ENDCHAR
STARTCHAR 266B
ENCODING 9835
SWIDTH 36 0
DWIDTH 1 0
BBX 1 1 0 0
BITMAP
00
ENDCHAR
STARTCHAR F001
ENCODING 61441
SWIDTH 36 0
DWIDTH 1 0
BBX 1 1 0 0
BITMAP
00
ENDCHAR
STARTCHAR F002
ENCODING 61442
SWIDTH 36 0
DWIDTH 1 0
BBX 1 1 0 0
BITMAP
00
ENDCHAR
STARTCHAR F004
ENCODING 61444
SWIDTH 36 0
DWIDTH 1 0
BBX 1 1 0 0
BITMAP
00
ENDCHAR
STARTCHAR F005
ENCODING 61445
SWIDTH 36 0
DWIDTH 1 0
BBX 1 1 0 0
BITMAP
00
ENDCHAR
STARTCHAR FB01
ENCODING 64257
SWIDTH 36 0
DWIDTH 1 0
BBX 1 1 0 0
BITMAP
00
ENDCHAR
STARTCHAR FB02
ENCODING 64258
SWIDTH 36 0
DWIDTH 1 0
BBX 1 1 0 0
BITMAP
00
ENDCHAR
ENDFONT
